<svg width="24" height="24" viewBox="0 0 24 24" fill="none" xmlns="http://www.w3.org/2000/svg">
<path d="M12.0002 21.75C11.0122 21.75 10.1242 21.237 9.6222 20.378C9.4142 20.02 9.5342 19.561 9.8922 19.352C10.2482 19.144 10.7082 19.264 10.9182 19.622C11.3772 20.409 12.6232 20.409 13.0822 19.622C13.2912 19.264 13.7512 19.144 14.1082 19.352C14.4662 19.56 14.5872 20.02 14.3782 20.378C13.8762 21.237 12.9882 21.75 12.0002 21.75ZM20.6752 18.325C20.8002 18.065 20.7652 17.757 20.5862 17.532C20.5672 17.509 18.7452 15.189 18.7452 12.5V8.995C18.7452 5.276 15.7192 2.25 12.0002 2.25C8.2812 2.25 5.2552 5.276 5.2552 8.995V12.5C5.2552 15.189 3.4332 17.509 3.4142 17.532C3.2352 17.757 3.2002 18.066 3.3252 18.325C3.4502 18.584 3.7122 18.75 4.0002 18.75H20.0002C20.2882 18.75 20.5502 18.584 20.6752 18.325ZM6.7552 12.5V8.995C6.7552 6.103 9.1082 3.75 12.0002 3.75C14.8922 3.75 17.2452 6.103 17.2452 8.995V12.5C17.2452 14.436 17.9952 16.158 18.6132 17.25H5.3862C6.0052 16.158 6.7552 14.436 6.7552 12.5Z" fill="#292421"/>
</svg>
