<svg width="32" height="33" viewBox="0 0 32 33" fill="none" xmlns="http://www.w3.org/2000/svg">
<path d="M16 0.823242C7.35496 0.823242 0.322876 7.85678 0.322876 16.5003C0.322876 25.1439 7.35496 32.1774 16 32.1774C24.645 32.1774 31.677 25.1439 31.677 16.5003C31.677 7.85678 24.645 0.823242 16 0.823242ZM16 29.9899C8.561 29.9899 2.51038 23.9393 2.51038 16.5003C2.51038 9.06137 8.561 3.01074 16 3.01074C23.4389 3.01074 29.4895 9.06137 29.4895 16.5003C29.4895 23.9393 23.4389 29.9899 16 29.9899ZM21.877 12.3236C22.3043 12.7509 22.3043 13.4437 21.877 13.871L15.071 20.677C14.8581 20.8899 14.5781 20.9978 14.2981 20.9978C14.0181 20.9978 13.7381 20.8914 13.5252 20.677L10.1229 17.2747C9.69559 16.8474 9.69559 16.1547 10.1229 15.7274C10.5502 15.3001 11.2429 15.3001 11.6702 15.7274L14.2996 18.3568L20.3312 12.3252C20.7585 11.8979 21.4497 11.8978 21.877 12.3236Z" fill="#25314C"/>
</svg>
