<svg width="20" height="20" viewBox="0 0 20 20" fill="none" xmlns="http://www.w3.org/2000/svg">
<path d="M1.66602 7.49992L1.66602 14.9999C1.66602 15.9166 2.41602 16.6666 3.33268 16.6666L16.666 16.6666C17.5827 16.6666 18.3327 15.9166 18.3327 14.9999L18.3327 7.49992C18.3327 6.58325 17.5827 5.83325 16.666 5.83325L15.8327 5.83325C15.6117 5.83325 15.3997 5.92105 15.2434 6.07733C15.0871 6.23361 14.9993 6.44557 14.9993 6.66658C14.9993 6.8876 15.0871 7.09956 15.2434 7.25584C15.3997 7.41212 15.6117 7.49992 15.8327 7.49992L16.666 7.49992L16.666 14.9999L3.33268 14.9999L3.33268 7.49992L4.16602 7.49992C4.38703 7.49992 4.59899 7.41212 4.75527 7.25584C4.91155 7.09956 4.99935 6.8876 4.99935 6.66659C4.99935 6.44557 4.91155 6.23361 4.75527 6.07733C4.59899 5.92105 4.38703 5.83325 4.16602 5.83325L3.33268 5.83325C2.41602 5.83325 1.66602 6.58325 1.66602 7.49992Z" fill="#292421"/>
<path d="M6.44905 6.90895C6.12405 6.58395 6.12405 6.05895 6.44905 5.73395L9.43905 2.74395C9.59532 2.58773 9.80725 2.49996 10.0282 2.49996C10.2492 2.49996 10.4611 2.58773 10.6174 2.74395L13.6074 5.73395C13.7506 5.89236 13.8274 6.09972 13.822 6.31318C13.8166 6.52663 13.7294 6.72985 13.5784 6.88083C13.4274 7.03182 13.2242 7.11901 13.0108 7.1244C12.7973 7.12979 12.59 7.05296 12.4315 6.90979L10.8615 5.34645L10.8615 12.5715C10.8615 12.7925 10.7738 13.0044 10.6175 13.1607C10.4612 13.317 10.2492 13.4048 10.0282 13.4048C9.8072 13.4048 9.59524 13.317 9.43896 13.1607C9.28268 13.0044 9.19488 12.7925 9.19488 12.5715L9.19488 5.34645L7.62488 6.90979C7.46871 7.06534 7.25722 7.15261 7.03679 7.15245C6.81637 7.1523 6.605 7.06473 6.44905 6.90895Z" fill="#292421"/>
</svg>
