<svg width="24" height="25" viewBox="0 0 24 25" fill="none" xmlns="http://www.w3.org/2000/svg">
<path d="M20.53 8.97L14.53 2.97C14.389 2.829 14.199 2.75 14 2.75H8C5.582 2.75 4.25 4.082 4.25 6.5V18.5C4.25 20.918 5.582 22.25 8 22.25H17C19.418 22.25 20.75 20.918 20.75 18.5V9.5C20.75 9.301 20.671 9.11 20.53 8.97ZM14.75 5.311L18.189 8.75H17C15.423 8.75 14.75 8.077 14.75 6.5V5.311ZM17 20.75H8C6.423 20.75 5.75 20.077 5.75 18.5V6.5C5.75 4.923 6.423 4.25 8 4.25H13.25V6.5C13.25 8.918 14.582 10.25 17 10.25H19.25V18.5C19.25 20.077 18.577 20.75 17 20.75Z" fill="#292421"/>
</svg>
