<svg width="35" height="35" viewBox="0 0 35 35" fill="none" xmlns="http://www.w3.org/2000/svg">
<g id="info">
<path id="exclamation-circle" d="M17.4997 1.82308C26.1447 1.82308 33.1768 8.85516 33.1768 17.5002C33.1768 26.1452 26.1447 33.1772 17.4997 33.1772C8.85468 33.1772 1.82259 26.1452 1.8226 17.5002C1.8226 8.85516 8.85468 1.82308 17.4997 1.82308ZM17.4997 30.9897C24.9386 30.9897 30.9893 24.9391 30.9893 17.5002C30.9893 10.0612 24.9386 4.01058 17.4997 4.01058C10.0607 4.01058 4.0101 10.0612 4.0101 17.5002C4.01009 24.9391 10.0607 30.9897 17.4997 30.9897ZM16.0121 12.396C16.0121 13.201 16.664 13.8543 17.4705 13.8543L17.4851 13.8543C18.2901 13.8543 18.9363 13.201 18.9363 12.396C18.9363 11.591 18.2755 10.9377 17.4705 10.9377C16.6655 10.9377 16.0121 11.591 16.0121 12.396ZM16.4059 17.3966L16.4059 24.0627C16.4059 24.6664 16.8959 25.1564 17.4997 25.1564C18.1034 25.1564 18.5934 24.6664 18.5934 24.0627L18.5934 17.3966C18.5934 16.7928 18.1034 16.3028 17.4997 16.3028C16.8959 16.3028 16.4059 16.7928 16.4059 17.3966Z" fill="white"/>
</g>
</svg>
