<svg width="24" height="25" viewBox="0 0 24 25" fill="none" xmlns="http://www.w3.org/2000/svg">
<g id="link">
<path id="link_2" d="M17.5649 14.796C17.3739 14.796 17.1819 14.723 17.0359 14.578C16.7429 14.286 16.7409 13.811 17.0339 13.517L19.001 11.539C19.809 10.741 20.25 9.671 20.25 8.523C20.25 7.377 19.8069 6.30298 19.0029 5.49798C17.3389 3.83298 14.6289 3.83298 12.9629 5.49798L10.9961 7.475C10.7041 7.769 10.2291 7.76999 9.93506 7.47799C9.64206 7.18599 9.63988 6.71099 9.93188 6.41699L11.9009 4.43899C14.1539 2.18699 17.814 2.18898 20.063 4.43798C21.151 5.52498 21.75 6.976 21.75 8.523C21.75 10.075 21.15 11.523 20.061 12.601L18.0979 14.575C17.9499 14.723 17.7579 14.796 17.5649 14.796ZM12.0991 20.563L14.0779 18.595C14.3709 18.303 14.3731 17.828 14.0801 17.534C13.7881 17.24 13.313 17.24 13.019 17.531L11.04 19.501C9.37604 21.166 6.666 21.166 5 19.501C3.335 17.836 3.33502 15.127 4.99902 13.463L6.97803 11.495C7.27103 11.203 7.27298 10.728 6.97998 10.434C6.68798 10.14 6.21295 10.14 5.91895 10.431L3.93994 12.401C1.68994 14.651 1.68994 18.311 3.93994 20.561C5.06594 21.686 6.544 22.248 8.021 22.248C9.498 22.248 10.9751 21.687 12.0991 20.563ZM9.53003 16.03L15.5559 10.005C15.8489 9.712 15.8489 9.23699 15.5559 8.94399C15.2639 8.65199 14.7891 8.64999 14.4951 8.94399L8.46899 14.969C8.17599 15.262 8.17599 15.737 8.46899 16.03C8.61499 16.176 8.80702 16.25 8.99902 16.25C9.19102 16.25 9.38403 16.177 9.53003 16.03Z" fill="#6F6F6F"/>
</g>
</svg>
