<svg width="24" height="25" viewBox="0 0 24 25" fill="none" xmlns="http://www.w3.org/2000/svg">
<g id="link">
<path id="link_2" d="M17.5649 14.7954C17.3739 14.7954 17.1819 14.7224 17.0359 14.5774C16.7429 14.2854 16.7409 13.8104 17.0339 13.5164L19.001 11.5384C19.809 10.7404 20.25 9.67039 20.25 8.52239C20.25 7.37639 19.8069 6.30237 19.0029 5.49737C17.3389 3.83237 14.6289 3.83237 12.9629 5.49737L10.9961 7.47439C10.7041 7.76839 10.2291 7.76938 9.93506 7.47738C9.64206 7.18538 9.63988 6.71038 9.93188 6.41638L11.9009 4.43838C14.1539 2.18638 17.814 2.18837 20.063 4.43737C21.151 5.52437 21.75 6.97539 21.75 8.52239C21.75 10.0744 21.15 11.5224 20.061 12.6004L18.0979 14.5744C17.9499 14.7224 17.7579 14.7954 17.5649 14.7954ZM12.0991 20.5624L14.0779 18.5944C14.3709 18.3024 14.3731 17.8274 14.0801 17.5334C13.7881 17.2394 13.313 17.2394 13.019 17.5304L11.04 19.5004C9.37604 21.1654 6.666 21.1654 5 19.5004C3.335 17.8354 3.33502 15.1264 4.99902 13.4624L6.97803 11.4944C7.27103 11.2024 7.27298 10.7274 6.97998 10.4334C6.68798 10.1394 6.21295 10.1394 5.91895 10.4304L3.93994 12.4004C1.68994 14.6504 1.68994 18.3104 3.93994 20.5604C5.06594 21.6854 6.544 22.2474 8.021 22.2474C9.498 22.2474 10.9751 21.6864 12.0991 20.5624ZM9.53003 16.0294L15.5559 10.0044C15.8489 9.71139 15.8489 9.23638 15.5559 8.94338C15.2639 8.65138 14.7891 8.64938 14.4951 8.94338L8.46899 14.9684C8.17599 15.2614 8.17599 15.7364 8.46899 16.0294C8.61499 16.1754 8.80702 16.2494 8.99902 16.2494C9.19102 16.2494 9.38403 16.1764 9.53003 16.0294Z" fill="white"/>
</g>
</svg>
