<svg width="24" height="25" viewBox="0 0 24 25" fill="none" xmlns="http://www.w3.org/2000/svg">
<path d="M12.7998 2.10005V1.30005H11.1998V2.10005H12.7998ZM11.1998 7.70005V8.50005H12.7998V7.70005H11.1998ZM12.7998 17.3001V16.5001H11.1998V17.3001H12.7998ZM11.1998 22.9001V23.7001H12.7998V22.9001H11.1998ZM7.19981 13.292H7.99981V11.692H7.19981V13.292ZM1.5998 11.692H0.799805V13.292H1.5998V11.692ZM22.3998 13.3H23.1998V11.7H22.3998V13.3ZM16.7998 11.692H15.9998V13.292H16.7998V11.692ZM11.1998 2.10005V7.70005H12.7998V2.10005H11.1998ZM11.1998 17.3001V22.9001H12.7998V17.3001H11.1998ZM7.19981 11.692H1.5998V13.292H7.19981V11.692ZM22.3998 11.7L16.7998 11.692V13.292L22.3998 13.3V11.7ZM3.435 5.06645L8.235 9.86645L9.36781 8.73365L4.56781 3.93365L3.435 5.06645ZM19.435 3.93365L14.635 8.73365L15.7678 9.86645L20.5678 5.06645L19.435 3.93365ZM4.56621 21.0665L9.36621 16.2664L8.23341 15.1336L3.4334 19.9337L4.56621 21.0665ZM14.6334 16.2664L19.4334 21.0665L20.5662 19.9337L15.7662 15.1336L14.6334 16.2664Z" fill="#292421"/>
</svg>
