<svg width="77" height="35" viewBox="0 0 77 35" fill="none" xmlns="http://www.w3.org/2000/svg">
<rect width="35" height="35" rx="5" fill="#FED602"/>
<path fill-rule="evenodd" clip-rule="evenodd" d="M18.406 9.18007C18.1271 9.04852 17.8174 8.97656 17.4962 8.97656C16.6604 8.97656 15.9028 9.46367 15.5621 10.2201L8.45825 25.9905H11.1033L12.7989 22.1083L13.7823 19.8803L17.0782 12.316L18.406 9.18007ZM18.4725 13.8459L21.0733 19.8465L22.0228 22.0746L23.7184 25.9567H26.533L19.7283 10.8802L18.4725 13.8459ZM19.5119 22.1225L17.399 17.4746L15.2144 22.1225L19.5119 22.1225Z" fill="#292421"/>
<path d="M55.6221 20.072C55.6221 20.68 55.4621 21.2027 55.1421 21.64C54.8327 22.0773 54.4114 22.4133 53.8781 22.648C53.3447 22.8827 52.7581 23 52.1181 23H46.6941V11.64H52.5501C53.0834 11.64 53.5421 11.784 53.9261 12.072C54.3207 12.3493 54.6194 12.712 54.8221 13.16C55.0354 13.5973 55.1421 14.056 55.1421 14.536C55.1421 15.0907 54.9981 15.6133 54.7101 16.104C54.4327 16.584 54.0327 16.9413 53.5101 17.176C54.1607 17.368 54.6727 17.72 55.0461 18.232C55.4301 18.7333 55.6221 19.3467 55.6221 20.072ZM53.7821 19.736C53.7821 19.416 53.7127 19.128 53.5741 18.872C53.4461 18.6053 53.2647 18.392 53.0301 18.232C52.8061 18.0613 52.5394 17.976 52.2301 17.976H48.4861V21.448H52.1181C52.4381 21.448 52.7207 21.3733 52.9661 21.224C53.2221 21.064 53.4194 20.856 53.5581 20.6C53.7074 20.3333 53.7821 20.0453 53.7821 19.736ZM48.4861 13.192V16.536H51.7821C52.0807 16.536 52.3474 16.4667 52.5821 16.328C52.8167 16.1787 53.0034 15.9813 53.1421 15.736C53.2807 15.48 53.3501 15.192 53.3501 14.872C53.3501 14.5413 53.2861 14.2533 53.1581 14.008C53.0301 13.752 52.8541 13.5547 52.6301 13.416C52.4167 13.2667 52.1661 13.192 51.8781 13.192H48.4861ZM56.9149 23C56.9149 22.3493 56.9629 21.7787 57.0589 21.288C57.1549 20.7973 57.3043 20.3547 57.5069 19.96C57.7096 19.5653 57.9656 19.2187 58.2749 18.92C58.5843 18.6213 58.9416 18.3493 59.3469 18.104C59.7416 17.8693 60.1469 17.6507 60.5629 17.448C60.9896 17.2453 61.3843 17.032 61.7469 16.808C62.1096 16.584 62.3976 16.3227 62.6109 16.024C62.8349 15.7147 62.9469 15.3413 62.9469 14.904C62.9469 14.552 62.8723 14.2427 62.7229 13.976C62.5843 13.7093 62.3709 13.5013 62.0829 13.352C61.8056 13.192 61.4483 13.112 61.0109 13.112C60.5629 13.112 60.1469 13.192 59.7629 13.352C59.3896 13.5013 59.0589 13.688 58.7709 13.912C58.4936 14.136 58.2696 14.3547 58.0989 14.568L56.9789 13.4C57.0856 13.272 57.2563 13.1013 57.4909 12.888C57.7363 12.6747 58.0349 12.4613 58.3869 12.248C58.7496 12.0347 59.1656 11.8587 59.6349 11.72C60.1043 11.5707 60.6323 11.496 61.2189 11.496C62.0296 11.496 62.7069 11.6453 63.2509 11.944C63.8056 12.232 64.2216 12.632 64.4989 13.144C64.7869 13.6453 64.9309 14.2107 64.9309 14.84C64.9309 15.352 64.8403 15.8 64.6589 16.184C64.4776 16.5573 64.2376 16.8827 63.9389 17.16C63.6509 17.4267 63.3256 17.6667 62.9629 17.88C62.6109 18.0933 62.2589 18.296 61.9069 18.488C61.2989 18.7973 60.8083 19.0747 60.4349 19.32C60.0723 19.5653 59.7843 19.8 59.5709 20.024C59.3683 20.248 59.2243 20.472 59.1389 20.696C59.0536 20.92 58.9949 21.16 58.9629 21.416H64.9469V23H56.9149ZM75.9971 20.072C75.9971 20.68 75.8371 21.2027 75.5171 21.64C75.2077 22.0773 74.7864 22.4133 74.2531 22.648C73.7197 22.8827 73.1331 23 72.4931 23H67.0691V11.64H72.9251C73.4584 11.64 73.9171 11.784 74.3011 12.072C74.6957 12.3493 74.9944 12.712 75.1971 13.16C75.4104 13.5973 75.5171 14.056 75.5171 14.536C75.5171 15.0907 75.3731 15.6133 75.0851 16.104C74.8077 16.584 74.4077 16.9413 73.8851 17.176C74.5357 17.368 75.0477 17.72 75.4211 18.232C75.8051 18.7333 75.9971 19.3467 75.9971 20.072ZM74.1571 19.736C74.1571 19.416 74.0877 19.128 73.9491 18.872C73.8211 18.6053 73.6397 18.392 73.4051 18.232C73.1811 18.0613 72.9144 17.976 72.6051 17.976H68.8611V21.448H72.4931C72.8131 21.448 73.0957 21.3733 73.3411 21.224C73.5971 21.064 73.7944 20.856 73.9331 20.6C74.0824 20.3333 74.1571 20.0453 74.1571 19.736ZM68.8611 13.192V16.536H72.1571C72.4557 16.536 72.7224 16.4667 72.9571 16.328C73.1917 16.1787 73.3784 15.9813 73.5171 15.736C73.6557 15.48 73.7251 15.192 73.7251 14.872C73.7251 14.5413 73.6611 14.2533 73.5331 14.008C73.4051 13.752 73.2291 13.5547 73.0051 13.416C72.7917 13.2667 72.5411 13.192 72.2531 13.192H68.8611Z" fill="#292421"/>
</svg>
