<svg width="24" height="25" viewBox="0 0 24 25" fill="none" xmlns="http://www.w3.org/2000/svg">
<g id="fluent:money-hand-20-regular">
<path id="Vector" d="M5.4001 22.0996C4.92271 22.0996 4.46487 21.91 4.12731 21.5724C3.78974 21.2348 3.6001 20.777 3.6001 20.2996V4.69961C3.6001 4.22222 3.78974 3.76438 4.12731 3.42682C4.46487 3.08925 4.92271 2.89961 5.4001 2.89961H13.8001C14.2775 2.89961 14.7353 3.08925 15.0729 3.42682C15.4105 3.76438 15.6001 4.22222 15.6001 4.69961V6.49961C15.6001 6.65874 15.5369 6.81135 15.4244 6.92387C15.3118 7.0364 15.1592 7.09961 15.0001 7.09961C14.5045 7.09961 14.1877 7.22201 13.9729 7.38281C13.7533 7.54721 13.5865 7.79321 13.4641 8.13041C13.2073 8.83601 13.2001 9.77081 13.2001 10.6996C13.2001 10.7785 13.1845 10.8567 13.1542 10.9296C13.124 11.0025 13.0796 11.0687 13.0237 11.1244L12.6805 11.4688L11.2249 12.9244C10.6645 13.4848 10.5001 13.8604 10.4689 14.0704C10.4449 14.2384 10.4953 14.3512 10.6153 14.4664C10.8721 14.7124 11.0557 14.8792 11.2633 14.9296C11.3869 14.9608 11.6689 14.9824 12.1753 14.476L15.7753 10.876C15.8878 10.7633 16.0405 10.7 16.1997 10.6999C16.2785 10.6998 16.3566 10.7153 16.4294 10.7454C16.5023 10.7755 16.5685 10.8197 16.6243 10.8754C16.6801 10.9311 16.7243 10.9973 16.7546 11.0701C16.7848 11.1429 16.8004 11.2209 16.8004 11.2998C16.8005 11.3786 16.785 11.4567 16.7549 11.5296C16.7248 11.6024 16.6806 11.6686 16.6249 11.7244L15.6001 12.748V16.4512L18.6721 13.3792C18.8394 13.2121 18.9722 13.0136 19.0628 12.7952C19.1534 12.5767 19.2 12.3425 19.2001 12.106V3.49961C19.2001 3.34048 19.2633 3.18787 19.3758 3.07534C19.4884 2.96282 19.641 2.89961 19.8001 2.89961C19.9592 2.89961 20.1118 2.96282 20.2244 3.07534C20.3369 3.18787 20.4001 3.34048 20.4001 3.49961V12.106C20.3999 12.9013 20.084 13.664 19.5217 14.2264L15.6001 18.148V20.2996C15.6001 20.777 15.4105 21.2348 15.0729 21.5724C14.7353 21.91 14.2775 22.0996 13.8001 22.0996H5.4001ZM14.4001 17.8996V13.948L13.0249 15.3244C12.3301 16.018 11.6401 16.2568 10.9789 16.096C10.849 16.064 10.723 16.0177 10.6033 15.958C10.0669 16.1134 9.50169 16.1419 8.95237 16.0413C8.40305 15.9406 7.88467 15.7136 7.43818 15.3782C6.99169 15.0427 6.62933 14.608 6.37975 14.1084C6.13016 13.6089 6.00019 13.0581 6.0001 12.4996C6.00005 11.8037 6.20172 11.1226 6.58069 10.5389C6.95967 9.95525 7.49971 9.49391 8.13544 9.21077C8.77117 8.92763 9.47535 8.83483 10.1627 8.94359C10.8501 9.05236 11.4912 9.35803 12.0085 9.82361C12.0289 9.13001 12.0985 8.37161 12.3361 7.72001C12.5137 7.23161 12.7969 6.76481 13.2529 6.42401L13.2601 6.41681C12.8947 6.30189 12.5755 6.0734 12.3489 5.76457C12.1223 5.45573 12.0001 5.08266 12.0001 4.69961V4.09961H7.2001V4.69961C7.2001 5.177 7.01046 5.63484 6.67289 5.9724C6.33532 6.30997 5.87749 6.49961 5.4001 6.49961H4.8001V18.4996H5.4001C5.87749 18.4996 6.33532 18.6893 6.67289 19.0268C7.01046 19.3644 7.2001 19.8222 7.2001 20.2996V20.8996H12.0001V20.2996C12.0001 19.8222 12.1897 19.3644 12.5273 19.0268C12.8649 18.6893 13.3227 18.4996 13.8001 18.4996H14.4001V17.8996ZM14.4001 4.69961V4.68881C14.3973 4.53156 14.3328 4.3817 14.2206 4.27151C14.1084 4.16131 13.9574 4.09958 13.8001 4.09961H13.2001V4.69961C13.2001 4.85874 13.2633 5.01135 13.3758 5.12387C13.4884 5.23639 13.641 5.29961 13.8001 5.29961H14.4001V4.69961ZM7.2001 12.4996C7.20011 13.1099 7.43265 13.6974 7.85041 14.1423C8.26817 14.5873 8.83977 14.8564 9.4489 14.8948C9.3001 14.6188 9.2245 14.2828 9.2821 13.8952C9.3673 13.3168 9.7357 12.7156 10.3753 12.076L11.4637 10.9876C11.1512 10.6026 10.7272 10.3238 10.2498 10.1895C9.7725 10.0553 9.26528 10.0722 8.79793 10.2379C8.33058 10.4037 7.92604 10.7101 7.63992 11.1151C7.35381 11.5201 7.20016 12.0037 7.2001 12.4996ZM6.0001 20.8996V20.2996C6.0001 20.1405 5.93688 19.9879 5.82436 19.8753C5.71184 19.7628 5.55923 19.6996 5.4001 19.6996H4.8001V20.2996C4.8001 20.4587 4.86331 20.6114 4.97583 20.7239C5.08836 20.8364 5.24097 20.8996 5.4001 20.8996H6.0001ZM4.8001 5.29961H5.4001C5.55923 5.29961 5.71184 5.23639 5.82436 5.12387C5.93688 5.01135 6.0001 4.85874 6.0001 4.69961V4.09961H5.4001C5.24097 4.09961 5.08836 4.16282 4.97583 4.27534C4.86331 4.38787 4.8001 4.54048 4.8001 4.69961V5.29961ZM14.4001 19.6996H13.8001C13.641 19.6996 13.4884 19.7628 13.3758 19.8753C13.2633 19.9879 13.2001 20.1405 13.2001 20.2996V20.8996H13.8001C13.9592 20.8996 14.1118 20.8364 14.2244 20.7239C14.3369 20.6114 14.4001 20.4587 14.4001 20.2996V19.6996Z" fill="#292421"/>
</g>
</svg>
