<svg width="134" height="20" viewBox="0 0 134 20" fill="none" xmlns="http://www.w3.org/2000/svg">
<path d="M49.4497 17.4306V20H63.7848V17.4306H49.4497ZM49.4497 0.956421V3.52579H63.7848V0.956421H49.4497ZM49.4497 9.19352V11.7629H62.5808V9.19352H49.4497Z" fill="#292421"/>
<path d="M47.0537 0.956421L41.4799 18.4466C41.185 19.3718 40.3255 20 39.3544 20V20C38.4207 20 37.5857 19.4185 37.262 18.5427L32.5755 5.86483L27.9854 18.5462C27.6695 19.4187 26.841 20 25.913 20V20C24.9536 20 24.1045 19.3794 23.8132 18.4653L18.2334 0.956421H21.6352L26.1256 15.5207L30.4651 2.47379C30.7665 1.56775 31.6141 0.956421 32.5689 0.956421V0.956421C33.5169 0.956421 34.3601 1.55916 34.6668 2.45617L39.1342 15.5207L43.5974 0.956421H47.0537Z" fill="#292421"/>
<path d="M80.6482 20L74.6636 12.2573L68.7167 20H65.4214L72.9591 10.3781L65.7623 1.05682H69.1334L74.7393 8.31085L80.2695 1.05682H83.6027L76.4059 10.2277L83.9436 20H80.6482Z" fill="#292421"/>
<path fill-rule="evenodd" clip-rule="evenodd" d="M11.3073 1.18418C10.9951 1.03695 10.6485 0.956421 10.289 0.956421C9.35353 0.956421 8.50552 1.50163 8.12415 2.34827L0.172852 20H3.13349L5.03134 15.6547L6.13209 13.1609L9.81919 4.69864L11.3073 1.18418ZM11.3817 6.40653L14.2928 13.1231L15.3556 15.6169L17.2535 19.9622H20.4039L12.7873 3.08705L11.3817 6.40653ZM13.0268 16.7427L10.1802 10.8757L7.33366 16.7427L13.0268 16.7427Z" fill="#292421"/>
<rect x="87.4199" y="1.35187" width="45.7407" height="18.2963" rx="9.14815" fill="#292421"/>
<path d="M99.9146 13.6525V4.42249H103.763C104.17 4.42249 104.543 4.50915 104.881 4.68249C105.219 4.84715 105.513 5.07249 105.765 5.35849C106.016 5.63582 106.211 5.95215 106.35 6.30749C106.488 6.65415 106.558 7.00949 106.558 7.37349C106.558 7.87615 106.445 8.35715 106.22 8.81649C105.994 9.26715 105.678 9.63549 105.271 9.92149C104.863 10.1988 104.387 10.3375 103.841 10.3375H101.085V13.6525H99.9146ZM101.085 9.29749H103.776C104.096 9.29749 104.374 9.21082 104.608 9.03749C104.85 8.86415 105.037 8.63015 105.167 8.33549C105.305 8.04082 105.375 7.72015 105.375 7.37349C105.375 7.00949 105.297 6.68449 105.141 6.39849C104.985 6.10382 104.781 5.87415 104.53 5.70949C104.278 5.54482 104.001 5.46249 103.698 5.46249H101.085V9.29749Z" fill="#FED602"/>
<path d="M107.223 11.6895C107.223 11.2562 107.344 10.8835 107.587 10.5715C107.838 10.2508 108.181 10.0038 108.614 9.83049C109.047 9.65715 109.55 9.57049 110.122 9.57049C110.425 9.57049 110.746 9.59649 111.084 9.64849C111.422 9.69182 111.721 9.76115 111.981 9.85649V9.36249C111.981 8.84249 111.825 8.43515 111.513 8.14049C111.201 7.83715 110.759 7.68549 110.187 7.68549C109.814 7.68549 109.455 7.75482 109.108 7.89349C108.77 8.02349 108.41 8.21415 108.029 8.46549L107.613 7.65949C108.055 7.35615 108.497 7.13082 108.939 6.98349C109.381 6.82749 109.84 6.74949 110.317 6.74949C111.184 6.74949 111.868 6.99215 112.371 7.47749C112.874 7.95415 113.125 8.62149 113.125 9.47949V12.3525C113.125 12.4912 113.151 12.5952 113.203 12.6645C113.264 12.7252 113.359 12.7598 113.489 12.7685V13.6525C113.376 13.6698 113.277 13.6828 113.19 13.6915C113.112 13.7002 113.047 13.7045 112.995 13.7045C112.726 13.7045 112.523 13.6308 112.384 13.4835C112.254 13.3362 112.18 13.1802 112.163 13.0155L112.137 12.5865C111.842 12.9678 111.457 13.2625 110.98 13.4705C110.503 13.6785 110.031 13.7825 109.563 13.7825C109.112 13.7825 108.709 13.6915 108.354 13.5095C107.999 13.3188 107.721 13.0675 107.522 12.7555C107.323 12.4348 107.223 12.0795 107.223 11.6895ZM111.643 12.1705C111.747 12.0492 111.829 11.9278 111.89 11.8065C111.951 11.6765 111.981 11.5682 111.981 11.4815V10.6365C111.712 10.5325 111.431 10.4545 111.136 10.4025C110.841 10.3418 110.551 10.3115 110.265 10.3115C109.684 10.3115 109.212 10.4285 108.848 10.6625C108.493 10.8878 108.315 11.1998 108.315 11.5985C108.315 11.8152 108.371 12.0275 108.484 12.2355C108.605 12.4348 108.779 12.5995 109.004 12.7295C109.238 12.8595 109.524 12.9245 109.862 12.9245C110.217 12.9245 110.555 12.8552 110.876 12.7165C111.197 12.5692 111.452 12.3872 111.643 12.1705Z" fill="#FED602"/>
<path d="M115.05 15.4985C115.163 15.5072 115.276 15.5158 115.388 15.5245C115.501 15.5418 115.588 15.5505 115.648 15.5505C115.787 15.5505 115.908 15.5028 116.012 15.4075C116.116 15.3122 116.229 15.1258 116.35 14.8485C116.48 14.5798 116.645 14.1812 116.844 13.6525L113.971 6.86649H115.18L117.468 12.4955L119.535 6.86649H120.666L117.364 15.4335C117.286 15.6328 117.169 15.8192 117.013 15.9925C116.866 16.1745 116.675 16.3175 116.441 16.4215C116.207 16.5255 115.926 16.5775 115.596 16.5775C115.518 16.5775 115.436 16.5732 115.349 16.5645C115.271 16.5558 115.172 16.5385 115.05 16.5125V15.4985Z" fill="#FED602"/>
</svg>
