<svg width="35" height="35" viewBox="0 0 35 35" fill="none" xmlns="http://www.w3.org/2000/svg">
<path d="M17.5003 1.82291C8.85533 1.82291 1.82324 8.85645 1.82324 17.5C1.82324 26.1435 8.85533 33.1771 17.5003 33.1771C26.1453 33.1771 33.1774 26.1435 33.1774 17.5C33.1774 8.85645 26.1453 1.82291 17.5003 1.82291ZM17.5003 30.9896C10.0614 30.9896 4.01074 24.9389 4.01074 17.5C4.01074 10.061 10.0614 4.01041 17.5003 4.01041C24.9393 4.01041 30.9899 10.061 30.9899 17.5C30.9899 24.9389 24.9393 30.9896 17.5003 30.9896ZM22.6482 13.8979L19.0462 17.5L22.6482 21.102C23.0755 21.5293 23.0755 22.2221 22.6482 22.6494C22.4353 22.8623 22.1553 22.9702 21.8753 22.9702C21.5953 22.9702 21.3153 22.8637 21.1024 22.6494L17.5003 19.0472L13.8982 22.6494C13.6853 22.8623 13.4053 22.9702 13.1253 22.9702C12.8453 22.9702 12.5653 22.8637 12.3524 22.6494C11.9251 22.2221 11.9251 21.5293 12.3524 21.102L15.9545 17.5L12.3524 13.8979C11.9251 13.4707 11.9251 12.7779 12.3524 12.3506C12.7797 11.9233 13.4724 11.9233 13.8997 12.3506L17.5018 15.9527L21.1039 12.3506C21.5312 11.9233 22.2239 11.9233 22.6512 12.3506C23.0756 12.7779 23.0755 13.4721 22.6482 13.8979Z" fill="#EE2F2B"/>
</svg>
