<svg width="35" height="35" viewBox="0 0 35 35" fill="none" xmlns="http://www.w3.org/2000/svg">
<path d="M4.375 9.11458C4.375 7.85757 4.87435 6.65204 5.76319 5.76319C6.65204 4.87435 7.85757 4.375 9.11458 4.375H12.0312C12.3213 4.375 12.5995 4.49023 12.8046 4.69535C13.0098 4.90047 13.125 5.17867 13.125 5.46875C13.125 5.75883 13.0098 6.03703 12.8046 6.24215C12.5995 6.44727 12.3213 6.5625 12.0312 6.5625H9.11458C8.43773 6.5625 7.7886 6.83138 7.30999 7.30999C6.83138 7.7886 6.5625 8.43773 6.5625 9.11458V12.0312C6.5625 12.3213 6.44727 12.5995 6.24215 12.8046C6.03703 13.0098 5.75883 13.125 5.46875 13.125C5.17867 13.125 4.90047 13.0098 4.69535 12.8046C4.49023 12.5995 4.375 12.3213 4.375 12.0312V9.11458ZM21.875 5.46875C21.875 5.17867 21.9902 4.90047 22.1954 4.69535C22.4005 4.49023 22.6787 4.375 22.9688 4.375H25.8854C27.1424 4.375 28.348 4.87435 29.2368 5.76319C30.1257 6.65204 30.625 7.85757 30.625 9.11458V12.0312C30.625 12.3213 30.5098 12.5995 30.3046 12.8046C30.0995 13.0098 29.8213 13.125 29.5312 13.125C29.2412 13.125 28.963 13.0098 28.7579 12.8046C28.5527 12.5995 28.4375 12.3213 28.4375 12.0312V9.11458C28.4375 8.43773 28.1686 7.7886 27.69 7.30999C27.2114 6.83138 26.5623 6.5625 25.8854 6.5625H22.9688C22.6787 6.5625 22.4005 6.44727 22.1954 6.24215C21.9902 6.03703 21.875 5.75883 21.875 5.46875ZM5.46875 21.875C5.75883 21.875 6.03703 21.9902 6.24215 22.1954C6.44727 22.4005 6.5625 22.6787 6.5625 22.9688V25.8854C6.5625 27.2942 7.70583 28.4375 9.11458 28.4375H12.0312C12.3213 28.4375 12.5995 28.5527 12.8046 28.7579C13.0098 28.963 13.125 29.2412 13.125 29.5312C13.125 29.8213 13.0098 30.0995 12.8046 30.3046C12.5995 30.5098 12.3213 30.625 12.0312 30.625H9.11458C7.85757 30.625 6.65204 30.1257 5.76319 29.2368C4.87435 28.348 4.375 27.1424 4.375 25.8854V22.9688C4.375 22.6787 4.49023 22.4005 4.69535 22.1954C4.90047 21.9902 5.17867 21.875 5.46875 21.875ZM29.5312 21.875C29.8213 21.875 30.0995 21.9902 30.3046 22.1954C30.5098 22.4005 30.625 22.6787 30.625 22.9688V25.8854C30.625 27.1424 30.1257 28.348 29.2368 29.2368C28.348 30.1257 27.1424 30.625 25.8854 30.625H22.9688C22.6787 30.625 22.4005 30.5098 22.1954 30.3046C21.9902 30.0995 21.875 29.8213 21.875 29.5312C21.875 29.2412 21.9902 28.963 22.1954 28.7579C22.4005 28.5527 22.6787 28.4375 22.9688 28.4375H25.8854C26.5623 28.4375 27.2114 28.1686 27.69 27.69C28.1686 27.2114 28.4375 26.5623 28.4375 25.8854V22.9688C28.4375 22.6787 28.5527 22.4005 28.7579 22.1954C28.963 21.9902 29.2412 21.875 29.5312 21.875ZM14.5833 10.2083H10.2083V14.5833H14.5833V20.4167H10.2083V24.7917H14.5833V20.4167H20.4167V24.7917H24.7917V20.4167H20.4167V14.5833H24.7917V10.2083H20.4167V14.5833H14.5833V10.2083Z" fill="#6F6F6F"/>
</svg>
