<svg width="21" height="20" viewBox="0 0 21 20" fill="none" xmlns="http://www.w3.org/2000/svg">
<path d="M5 18C4.60218 18 4.22064 17.842 3.93934 17.5607C3.65804 17.2794 3.5 16.8978 3.5 16.5V3.5C3.5 3.10218 3.65804 2.72064 3.93934 2.43934C4.22064 2.15804 4.60218 2 5 2H12C12.3978 2 12.7794 2.15804 13.0607 2.43934C13.342 2.72064 13.5 3.10218 13.5 3.5V5C13.5 5.13261 13.4473 5.25979 13.3536 5.35355C13.2598 5.44732 13.1326 5.5 13 5.5C12.587 5.5 12.323 5.602 12.144 5.736C11.961 5.873 11.822 6.078 11.72 6.359C11.506 6.947 11.5 7.726 11.5 8.5C11.5 8.56577 11.487 8.6309 11.4618 8.69165C11.4365 8.75239 11.3996 8.80756 11.353 8.854L11.067 9.141L9.854 10.354C9.387 10.821 9.25 11.134 9.224 11.309C9.204 11.449 9.246 11.543 9.346 11.639C9.56 11.844 9.713 11.983 9.886 12.025C9.989 12.051 10.224 12.069 10.646 11.647L13.646 8.647C13.7398 8.55311 13.867 8.50032 13.9996 8.50022C14.0653 8.50018 14.1304 8.51307 14.1911 8.53817C14.2518 8.56327 14.307 8.60008 14.3535 8.6465C14.4 8.69292 14.4369 8.74805 14.4621 8.80873C14.4872 8.8694 14.5002 8.93445 14.5003 9.00015C14.5003 9.06584 14.4874 9.13091 14.4623 9.19162C14.4372 9.25234 14.4004 9.30751 14.354 9.354L13.5 10.207V13.293L16.06 10.733C16.1994 10.5937 16.3101 10.4283 16.3856 10.2463C16.4611 10.0642 16.5 9.86909 16.5 9.672V2.5C16.5 2.36739 16.5527 2.24021 16.6464 2.14645C16.7402 2.05268 16.8674 2 17 2C17.1326 2 17.2598 2.05268 17.3536 2.14645C17.4473 2.24021 17.5 2.36739 17.5 2.5V9.672C17.4999 10.3347 17.2366 10.9703 16.768 11.439L13.5 14.707V16.5C13.5 16.8978 13.342 17.2794 13.0607 17.5607C12.7794 17.842 12.3978 18 12 18H5ZM12.5 14.5V11.207L11.354 12.354C10.775 12.932 10.2 13.131 9.649 12.997C9.54076 12.9703 9.43579 12.9317 9.336 12.882C8.88899 13.0115 8.418 13.0352 7.96023 12.9514C7.50246 12.8675 7.07047 12.6783 6.6984 12.3988C6.32632 12.1193 6.02436 11.757 5.81638 11.3407C5.60839 10.9244 5.50008 10.4654 5.5 10C5.49996 9.42005 5.66802 8.85253 5.98383 8.36611C6.29964 7.8797 6.74967 7.49525 7.27945 7.2593C7.80923 7.02335 8.39604 6.94601 8.96886 7.03665C9.54168 7.12729 10.0759 7.38202 10.507 7.77C10.524 7.192 10.582 6.56 10.78 6.017C10.928 5.61 11.164 5.221 11.544 4.937L11.55 4.931C11.2455 4.83524 10.9795 4.64483 10.7906 4.38747C10.6018 4.13011 10.5 3.81921 10.5 3.5V3H6.5V3.5C6.5 3.89782 6.34196 4.27936 6.06066 4.56066C5.77936 4.84196 5.39782 5 5 5H4.5V15H5C5.39782 15 5.77936 15.158 6.06066 15.4393C6.34196 15.7206 6.5 16.1022 6.5 16.5V17H10.5V16.5C10.5 16.1022 10.658 15.7206 10.9393 15.4393C11.2206 15.158 11.6022 15 12 15H12.5V14.5ZM12.5 3.5V3.491C12.4976 3.35996 12.4439 3.23508 12.3504 3.14325C12.2569 3.05142 12.1311 2.99998 12 3H11.5V3.5C11.5 3.63261 11.5527 3.75979 11.6464 3.85355C11.7402 3.94732 11.8674 4 12 4H12.5V3.5ZM6.5 10C6.50001 10.5086 6.69379 10.9981 7.04193 11.3689C7.39006 11.7397 7.86639 11.964 8.374 11.996C8.25 11.766 8.187 11.486 8.235 11.163C8.306 10.681 8.613 10.18 9.146 9.647L10.053 8.74C9.79262 8.41913 9.43925 8.18679 9.04146 8.07492C8.64367 7.96305 8.22099 7.97714 7.83153 8.11526C7.44207 8.25337 7.10495 8.50872 6.86652 8.84622C6.62809 9.18371 6.50005 9.58678 6.5 10ZM5.5 17V16.5C5.5 16.3674 5.44732 16.2402 5.35355 16.1464C5.25979 16.0527 5.13261 16 5 16H4.5V16.5C4.5 16.6326 4.55268 16.7598 4.64645 16.8536C4.74021 16.9473 4.86739 17 5 17H5.5ZM4.5 4H5C5.13261 4 5.25979 3.94732 5.35355 3.85355C5.44732 3.75979 5.5 3.63261 5.5 3.5V3H5C4.86739 3 4.74021 3.05268 4.64645 3.14645C4.55268 3.24021 4.5 3.36739 4.5 3.5V4ZM12.5 16H12C11.8674 16 11.7402 16.0527 11.6464 16.1464C11.5527 16.2402 11.5 16.3674 11.5 16.5V17H12C12.1326 17 12.2598 16.9473 12.3536 16.8536C12.4473 16.7598 12.5 16.6326 12.5 16.5V16Z" fill="#292421"/>
</svg>
