<svg width="33" height="33" viewBox="0 0 33 33" fill="none" xmlns="http://www.w3.org/2000/svg">
<path d="M16.5001 0.823242C7.85508 0.823242 0.822998 7.85678 0.822998 16.5003C0.822998 25.1439 7.85508 32.1774 16.5001 32.1774C25.1451 32.1774 32.1772 25.1439 32.1772 16.5003C32.1772 7.85678 25.1451 0.823242 16.5001 0.823242ZM16.5001 29.9899C9.06112 29.9899 3.0105 23.9393 3.0105 16.5003C3.0105 9.06137 9.06112 3.01074 16.5001 3.01074C23.939 3.01074 29.9897 9.06137 29.9897 16.5003C29.9897 23.9393 23.939 29.9899 16.5001 29.9899ZM21.648 12.8983L18.0459 16.5003L21.648 20.1024C22.0753 20.5297 22.0753 21.2224 21.648 21.6497C21.4351 21.8626 21.1551 21.9705 20.8751 21.9705C20.5951 21.9705 20.3151 21.8641 20.1022 21.6497L16.5001 18.0476L12.898 21.6497C12.6851 21.8626 12.4051 21.9705 12.1251 21.9705C11.8451 21.9705 11.5651 21.8641 11.3522 21.6497C10.9249 21.2224 10.9249 20.5297 11.3522 20.1024L14.9543 16.5003L11.3522 12.8983C10.9249 12.471 10.9249 11.7782 11.3522 11.3509C11.7795 10.9236 12.4722 10.9236 12.8995 11.3509L16.5015 14.9531L20.1036 11.3509C20.5309 10.9236 21.2236 10.9236 21.6509 11.3509C22.0753 11.7782 22.0753 12.4725 21.648 12.8983Z" fill="#25314C"/>
</svg>
