<svg width="16" height="17" viewBox="0 0 16 17" fill="none" xmlns="http://www.w3.org/2000/svg">
<circle cx="8" cy="8.5" r="8" fill="#FED602"/>
<path d="M6.73554 9.97394C6.73554 9.72561 6.76706 9.49856 6.8301 9.2928C6.89313 9.08704 6.99557 8.89902 7.1374 8.72874C7.27923 8.55136 7.47228 8.39526 7.71655 8.26045C7.8505 8.1895 8.00809 8.11145 8.18932 8.02631C8.37055 7.93407 8.5439 7.82765 8.70937 7.70703C8.87484 7.58641 9.01274 7.4445 9.12305 7.28131C9.24124 7.11812 9.30034 6.92655 9.30034 6.7066C9.30034 6.47246 9.2373 6.27734 9.11123 6.12125C8.98516 5.95806 8.82363 5.83744 8.62664 5.75939C8.43753 5.67425 8.22872 5.63168 8.00021 5.63168C7.75595 5.63168 7.53138 5.6778 7.32651 5.77004C7.12164 5.86227 6.94435 5.97935 6.79464 6.12125C6.64493 6.26315 6.51886 6.41215 6.41642 6.56825L5.56543 6.04675C5.70726 5.75585 5.90425 5.50751 6.1564 5.30175C6.40854 5.09599 6.69615 4.9399 7.01921 4.83347C7.34227 4.72704 7.68109 4.67383 8.03567 4.67383C8.32721 4.67383 8.61482 4.7164 8.89848 4.80154C9.19003 4.87959 9.45005 5.00375 9.67856 5.17404C9.90706 5.34432 10.0883 5.56073 10.2222 5.82325C10.3641 6.07868 10.435 6.38732 10.435 6.74917C10.435 6.99751 10.3995 7.21391 10.3286 7.39839C10.2656 7.57577 10.171 7.73541 10.045 7.87731C9.91888 8.01922 9.77311 8.14693 9.60764 8.26045C9.44217 8.36688 9.26094 8.46976 9.06395 8.56909C8.86696 8.67552 8.67391 8.7855 8.48481 8.89902C8.2957 9.00545 8.1381 9.14026 8.01203 9.30345C7.88596 9.46664 7.82292 9.69014 7.82292 9.97394H6.73554ZM6.771 12.326V10.985H7.84656V12.326H6.771Z" fill="#292421"/>
</svg>
