<svg width="116" height="19" viewBox="0 0 116 19" fill="none" xmlns="http://www.w3.org/2000/svg">
<g clip-path="url(#clip0_127_763)">
<path d="M41.8885 10.4032L40.2935 16.1276H38.6335L36.4136 7.74564H38.2364L39.5579 13.8145H39.6035L41.1724 7.74564H42.6567L44.2256 13.8145H44.2711L45.5992 7.74564H47.422L45.1956 16.1276H43.5355L41.9406 10.4032H41.8885ZM49.8437 14.997C50.5793 14.997 51.1913 14.5162 51.1913 13.8405V13.3856L49.8763 13.4636C49.2448 13.5091 48.8802 13.795 48.8802 14.2368C48.8802 14.7111 49.2643 14.997 49.8437 14.997ZM49.2839 16.2251C48.099 16.2251 47.1941 15.4584 47.1941 14.3408C47.1941 13.2102 48.0665 12.5539 49.6224 12.4564L51.1913 12.3655V11.9561C51.1913 11.3778 50.7811 11.04 50.1432 11.04C49.5117 11.04 49.1081 11.3518 49.0235 11.8132H47.4676C47.5327 10.6046 48.5612 9.77291 50.2148 9.77291C51.8162 9.77291 52.8578 10.5981 52.8578 11.8522V16.1341H51.2173V15.179H51.1848C50.8332 15.8352 50.0651 16.2251 49.2839 16.2251ZM53.9971 7.74564H55.6962V16.1276H53.9971V7.74564ZM56.881 7.74564H58.5801V16.1276H56.881V7.74564ZM62.5252 11.0205C61.7831 11.0205 61.2427 11.5858 61.1841 12.359H63.8337C63.8012 11.5663 63.2804 11.0205 62.5252 11.0205ZM63.8597 14.2238H65.4221C65.2334 15.4454 64.1201 16.2641 62.5773 16.2641C60.6568 16.2641 59.5046 15.036 59.5046 13.0477C59.5046 11.0594 60.6698 9.77291 62.5122 9.77291C64.3285 9.77291 65.4742 11.001 65.4742 12.8918V13.4116H61.1776V13.5156C61.1776 14.4057 61.744 15.0165 62.6098 15.0165C63.2218 15.0035 63.697 14.6981 63.8597 14.2238ZM66.7958 8.46688H68.4949V9.90286H69.6471V11.1829H68.4949V14.1588C68.4949 14.6332 68.7292 14.8606 69.2305 14.8606C69.3802 14.8606 69.5365 14.8476 69.6406 14.8346V16.0821C69.4649 16.1211 69.1719 16.1536 68.8334 16.1536C67.3686 16.1536 66.7958 15.6663 66.7958 14.4512V11.1829H65.9169V9.90286H66.7958V8.46688ZM74.432 16.2706C71.9907 16.2706 70.4609 14.6397 70.4609 11.9301C70.4609 9.22711 72.0038 7.59619 74.432 7.59619C76.4501 7.59619 77.9865 8.87623 78.1232 10.7476H76.411C76.2483 9.72093 75.4541 9.04517 74.432 9.04517C73.104 9.04517 72.2511 10.1563 72.2511 11.9171C72.2511 13.704 73.0974 14.8086 74.4385 14.8086C75.4801 14.8086 76.2288 14.1978 76.4175 13.2037H78.1297C77.9279 15.088 76.4957 16.2706 74.432 16.2706ZM81.925 16.2576C80.0371 16.2576 78.8328 15.049 78.8328 13.0088C78.8328 10.9945 80.0566 9.76641 81.925 9.76641C83.7934 9.76641 85.0173 10.988 85.0173 13.0088C85.0173 15.0555 83.8129 16.2576 81.925 16.2576ZM81.925 14.9645C82.7583 14.9645 83.2856 14.2628 83.2856 13.0152C83.2856 11.7807 82.7518 11.0659 81.925 11.0659C81.0982 11.0659 80.5579 11.7807 80.5579 13.0152C80.5579 14.2628 81.0917 14.9645 81.925 14.9645ZM85.8896 16.1276V9.90286H87.5301V11.014H87.5627C87.8947 10.2407 88.5522 9.78591 89.5157 9.78591C90.9023 9.78591 91.677 10.6566 91.677 12.1121V16.1276H89.9779V12.4694C89.9779 11.6572 89.5938 11.1894 88.8321 11.1894C88.0704 11.1894 87.5887 11.7482 87.5887 12.5539V16.1276H85.8896ZM92.7511 16.1276V9.90286H94.3917V11.014H94.4242C94.7562 10.2407 95.4137 9.78591 96.3707 9.78591C97.7573 9.78591 98.532 10.6566 98.532 12.1121V16.1276H96.8329V12.4694C96.8329 11.6572 96.4488 11.1894 95.6871 11.1894C94.9255 11.1894 94.4437 11.7482 94.4437 12.5539V16.1276H92.7511ZM102.418 11.0205C101.676 11.0205 101.136 11.5858 101.077 12.359H103.727C103.694 11.5663 103.174 11.0205 102.418 11.0205ZM103.747 14.2238H105.309C105.12 15.4454 104.007 16.2641 102.464 16.2641C100.544 16.2641 99.3913 15.036 99.3913 13.0477C99.3913 11.0594 100.557 9.77291 102.399 9.77291C104.215 9.77291 105.361 11.001 105.361 12.8918V13.4116H101.064V13.5156C101.064 14.4057 101.631 15.0165 102.497 15.0165C103.115 15.0035 103.59 14.6981 103.747 14.2238ZM111.897 12.216H110.322C110.224 11.5598 109.788 11.0984 109.091 11.0984C108.251 11.0984 107.731 11.8067 107.731 13.0088C107.731 14.2368 108.251 14.9321 109.098 14.9321C109.781 14.9321 110.217 14.5227 110.328 13.847H111.91C111.825 15.3154 110.725 16.2641 109.085 16.2641C107.203 16.2641 106.012 15.0425 106.012 13.0152C106.012 11.0205 107.203 9.77291 109.072 9.77291C110.751 9.76641 111.825 10.806 111.897 12.216ZM113.18 8.46688H114.879V9.90286H116.031V11.1829H114.879V14.1588C114.879 14.6332 115.113 14.8606 115.614 14.8606C115.764 14.8606 115.92 14.8476 116.024 14.8346V16.0821C115.849 16.1211 115.562 16.1536 115.217 16.1536C113.752 16.1536 113.18 15.6663 113.18 14.4512V11.1829H112.301V9.90286H113.18V8.46688Z" fill="white"/>
<path d="M6.28182 3.75265C11.3141 -1.16609 19.4711 -1.16609 24.5098 3.75265L25.1153 4.34394C25.3692 4.59085 25.3692 4.98721 25.1153 5.23412L23.0451 7.26139C22.9214 7.38485 22.7131 7.38485 22.5894 7.26139L21.7561 6.44918C18.2472 3.01841 12.551 3.01841 9.04207 6.44918L8.1502 7.31987C8.02651 7.44333 7.81819 7.44333 7.6945 7.31987L5.6178 5.2926C5.36391 5.04569 5.36391 4.64933 5.6178 4.40242L6.28182 3.75265ZM28.7934 7.93715L30.6357 9.73701C30.8896 9.98392 30.8896 10.3803 30.6357 10.6272L22.3225 18.7558C22.0686 19.0027 21.665 19.0027 21.4111 18.7558L15.5065 12.9858C15.4414 12.9274 15.3437 12.9274 15.2786 12.9858L9.38059 18.7558C9.1267 19.0027 8.72307 19.0027 8.46918 18.7558L0.149402 10.6337C-0.104488 10.3868 -0.104488 9.99041 0.149402 9.7435L1.99173 7.94365C2.24562 7.69674 2.64924 7.69674 2.90313 7.94365L8.80771 13.7136C8.87281 13.7721 8.97046 13.7721 9.03556 13.7136L14.9336 7.94365C15.1875 7.69674 15.5911 7.69674 15.845 7.94365L21.7496 13.7136C21.8147 13.7721 21.9123 13.7721 21.9774 13.7136L27.882 7.94365C28.1294 7.69024 28.5395 7.69024 28.7934 7.93715Z" fill="white"/>
</g>
<defs>
<clipPath id="clip0_127_763">
<rect width="116" height="19" fill="white"/>
</clipPath>
</defs>
</svg>
