<svg width="26" height="25" viewBox="0 0 26 25" fill="none" xmlns="http://www.w3.org/2000/svg">
<g id="ic:round-log-in">
<path id="Vector" d="M2.24902 9.37533L2.24902 18.7503C2.24902 19.8962 3.18652 20.8337 4.33236 20.8337L20.999 20.8337C22.1449 20.8337 23.0824 19.8962 23.0824 18.7503L23.0824 9.37532C23.0824 8.22949 22.1449 7.29199 20.999 7.29199L19.9574 7.29199C19.6811 7.29199 19.4161 7.40174 19.2208 7.59709C19.0254 7.79244 18.9157 8.05739 18.9157 8.33366C18.9157 8.60993 19.0254 8.87488 19.2208 9.07023C19.4161 9.26558 19.6811 9.37532 19.9574 9.37532L20.999 9.37532L20.999 18.7503L4.33236 18.7503L4.33236 9.37533L5.37402 9.37533C5.65029 9.37533 5.91524 9.26558 6.11059 9.07023C6.30594 8.87488 6.41569 8.60993 6.41569 8.33366C6.41569 8.05739 6.30594 7.79244 6.11059 7.59709C5.91524 7.40174 5.65029 7.29199 5.37402 7.29199L4.33236 7.29199C3.18652 7.29199 2.24902 8.22949 2.24902 9.37533Z" fill="#6F6F6F"/>
<path id="Vector_2" d="M17.1394 11.2448C17.5456 11.651 17.5456 12.3073 17.1394 12.7135L13.4019 16.451C13.2065 16.6463 12.9416 16.756 12.6654 16.756C12.3892 16.756 12.1243 16.6463 11.929 16.451L8.19146 12.7135C8.01249 12.5155 7.91645 12.2563 7.92318 11.9895C7.92992 11.7227 8.03892 11.4687 8.22764 11.2799C8.41637 11.0912 8.6704 10.9822 8.93722 10.9755C9.20403 10.9687 9.46324 11.0648 9.66125 11.2437L11.6237 13.1979L11.6237 4.16667C11.6237 3.8904 11.7335 3.62545 11.9288 3.4301C12.1242 3.23475 12.3891 3.125 12.6654 3.125C12.9417 3.125 13.2066 3.23475 13.402 3.4301C13.5973 3.62545 13.7071 3.8904 13.7071 4.16667L13.7071 13.1979L15.6696 11.2437C15.8648 11.0493 16.1292 10.9402 16.4047 10.9404C16.6802 10.9406 16.9444 11.0501 17.1394 11.2448Z" fill="#6F6F6F"/>
</g>
</svg>
