<svg width="25" height="24" viewBox="0 0 25 24" fill="none" xmlns="http://www.w3.org/2000/svg">
<g id="angle-down-circle">
<path id="angle-down-circle_2" d="M12.5 1.25C6.572 1.25 1.75 6.072 1.75 12C1.75 17.928 6.572 22.75 12.5 22.75C18.428 22.75 23.25 17.928 23.25 12C23.25 6.072 18.428 1.25 12.5 1.25ZM12.5 21.25C7.399 21.25 3.25 17.101 3.25 12C3.25 6.899 7.399 2.75 12.5 2.75C17.601 2.75 21.75 6.899 21.75 12C21.75 17.101 17.601 21.25 12.5 21.25ZM16.03 10.47C16.323 10.763 16.323 11.238 16.03 11.531L13.03 14.531C12.884 14.677 12.692 14.751 12.5 14.751C12.308 14.751 12.116 14.678 11.97 14.531L8.96997 11.531C8.67697 11.238 8.67697 10.763 8.96997 10.47C9.26297 10.177 9.73801 10.177 10.031 10.47L12.501 12.9399L14.9709 10.47C15.2629 10.177 15.737 10.177 16.03 10.47Z" fill="white"/>
</g>
</svg>
