<svg width="25" height="24" viewBox="0 0 25 24" fill="none" xmlns="http://www.w3.org/2000/svg">
<g id="bookmark">
<path id="bookmark_2" d="M16.5 2.25H8.5C6.082 2.25 4.75 3.582 4.75 6V21C4.75 21.268 4.89302 21.5149 5.12402 21.6479C5.24002 21.716 5.37 21.75 5.5 21.75C5.628 21.75 5.75707 21.717 5.87207 21.651L12.5 17.863L19.1279 21.65C19.3599 21.783 19.646 21.782 19.876 21.647C20.107 21.513 20.25 21.266 20.25 20.999V5.99902C20.25 3.58202 18.918 2.25 16.5 2.25ZM18.75 19.707L12.8721 16.349C12.6421 16.217 12.3579 16.217 12.1279 16.349L6.25 19.708V6C6.25 4.423 6.923 3.75 8.5 3.75H16.5C18.077 3.75 18.75 4.423 18.75 6V19.707ZM16.25 8C16.25 8.414 15.914 8.75 15.5 8.75H9.5C9.086 8.75 8.75 8.414 8.75 8C8.75 7.586 9.086 7.25 9.5 7.25H15.5C15.914 7.25 16.25 7.586 16.25 8Z" fill="white"/>
</g>
</svg>
