<svg width="25" height="24" viewBox="0 0 25 24" fill="none" xmlns="http://www.w3.org/2000/svg">
<g id="chat-dots">
<path id="chat-dots_2" d="M4.3799 21.749C3.9229 21.749 3.47908 21.569 3.14309 21.233C2.66908 20.76 2.50608 20.073 2.71608 19.441L3.5569 16.94C3.6549 16.633 3.64602 16.325 3.53102 16.082C2.93902 14.809 2.62892 13.399 2.62892 11.999C2.62892 6.62402 7.00197 2.25 12.377 2.25C17.753 2.25 22.126 6.62302 22.126 11.999C22.126 17.375 17.753 21.748 12.377 21.748C10.978 21.748 9.56802 21.437 8.30202 20.848C8.05402 20.729 7.74502 20.721 7.42702 20.822L4.93801 21.658C4.75301 21.719 4.5649 21.749 4.3799 21.749ZM12.376 3.75C7.828 3.75 4.12795 7.45002 4.12795 11.999C4.12795 13.182 4.39096 14.373 4.88796 15.443C5.16396 16.024 5.19993 16.723 4.98293 17.406L4.13893 19.917C4.09693 20.042 4.1609 20.131 4.2029 20.173C4.2449 20.215 4.33498 20.279 4.45998 20.237L6.95803 19.398C7.65203 19.177 8.35196 19.211 8.93996 19.492C10.002 19.986 11.193 20.249 12.376 20.249C16.925 20.249 20.625 16.549 20.625 12C20.625 7.451 16.925 3.75 12.376 3.75ZM12.3799 13C11.8279 13 11.375 12.552 11.375 12C11.375 11.448 11.8181 11 12.3701 11H12.3799C12.9329 11 13.3799 11.448 13.3799 12C13.3799 12.552 12.9329 13 12.3799 13ZM17.3799 12C17.3799 11.448 16.9329 11 16.3799 11H16.3701C15.8181 11 15.375 11.448 15.375 12C15.375 12.552 15.8279 13 16.3799 13C16.9329 13 17.3799 12.552 17.3799 12ZM9.3799 12C9.3799 11.448 8.9329 11 8.3799 11H8.37014C7.81814 11 7.37502 11.448 7.37502 12C7.37502 12.552 7.8279 13 8.3799 13C8.9329 13 9.3799 12.552 9.3799 12Z" fill="white"/>
</g>
</svg>
