<svg width="25" height="24" viewBox="0 0 25 24" fill="none" xmlns="http://www.w3.org/2000/svg">
<g id="clock">
<path id="clock_2" d="M12.875 1.25C6.947 1.25 2.125 6.072 2.125 12C2.125 17.928 6.947 22.75 12.875 22.75C18.803 22.75 23.625 17.928 23.625 12C23.625 6.072 18.803 1.25 12.875 1.25ZM12.875 21.25C7.774 21.25 3.625 17.101 3.625 12C3.625 6.899 7.774 2.75 12.875 2.75C17.976 2.75 22.125 6.899 22.125 12C22.125 17.101 17.976 21.25 12.875 21.25ZM16.405 14.47C16.698 14.763 16.698 15.238 16.405 15.531C16.259 15.677 16.067 15.751 15.875 15.751C15.683 15.751 15.491 15.678 15.345 15.531L12.345 12.531C12.204 12.39 12.125 12.199 12.125 12.001V7.00098C12.125 6.58698 12.461 6.25098 12.875 6.25098C13.289 6.25098 13.625 6.58698 13.625 7.00098V11.6899L16.405 14.47Z" fill="white"/>
</g>
</svg>
