<svg width="25" height="24" viewBox="0 0 25 24" fill="none" xmlns="http://www.w3.org/2000/svg">
<g id="home">
<path id="home_2" d="M18.5 21.7493H14.25V16.4993C14.25 15.5343 13.465 14.7493 12.5 14.7493C11.535 14.7493 10.75 15.5343 10.75 16.4993V21.7493H6.5C4.082 21.7493 2.75 20.4173 2.75 17.9993V11.6493C2.75 9.52631 3.33599 8.93328 4.29199 8.14028L10.412 3.0093C11.621 1.9943 13.379 1.9943 14.588 3.0093L20.708 8.14028C21.664 8.93328 22.25 9.52731 22.25 11.6493V17.9993C22.25 20.4173 20.918 21.7493 18.5 21.7493ZM15.75 20.2493H18.5C20.077 20.2493 20.75 19.5763 20.75 17.9993V11.6493C20.75 10.1233 20.498 9.91433 19.751 9.29433L13.625 4.15834C12.973 3.61234 12.027 3.61234 11.375 4.15834L5.24902 9.29433C4.50202 9.91433 4.25 10.1233 4.25 11.6493V17.9993C4.25 19.5763 4.923 20.2493 6.5 20.2493H9.25V16.4993C9.25 14.7073 10.708 13.2493 12.5 13.2493C14.292 13.2493 15.75 14.7073 15.75 16.4993V20.2493Z" fill="white"/>
</g>
</svg>
