<svg width="25" height="24" viewBox="0 0 25 24" fill="none" xmlns="http://www.w3.org/2000/svg">
<g id="link">
<path id="link_2" d="M18.0649 14.2954C17.8739 14.2954 17.6819 14.2224 17.5359 14.0774C17.2429 13.7854 17.2409 13.3104 17.5339 13.0164L19.501 11.0384C20.309 10.2404 20.75 9.17039 20.75 8.02239C20.75 6.87639 20.3069 5.80237 19.5029 4.99737C17.8389 3.33237 15.1289 3.33237 13.4629 4.99737L11.4961 6.97439C11.2041 7.26839 10.7291 7.26938 10.4351 6.97738C10.1421 6.68538 10.1399 6.21038 10.4319 5.91638L12.4009 3.93838C14.6539 1.68638 18.314 1.68837 20.563 3.93737C21.651 5.02437 22.25 6.47539 22.25 8.02239C22.25 9.57439 21.65 11.0224 20.561 12.1004L18.5979 14.0744C18.4499 14.2224 18.2579 14.2954 18.0649 14.2954ZM12.5991 20.0624L14.5779 18.0944C14.8709 17.8024 14.8731 17.3274 14.5801 17.0334C14.2881 16.7394 13.813 16.7394 13.519 17.0304L11.54 19.0004C9.87604 20.6654 7.166 20.6654 5.5 19.0004C3.835 17.3354 3.83502 14.6264 5.49902 12.9624L7.47803 10.9944C7.77103 10.7024 7.77298 10.2274 7.47998 9.93337C7.18798 9.63937 6.71295 9.63938 6.41895 9.93038L4.43994 11.9004C2.18994 14.1504 2.18994 17.8104 4.43994 20.0604C5.56594 21.1854 7.044 21.7474 8.521 21.7474C9.998 21.7474 11.4751 21.1864 12.5991 20.0624ZM10.03 15.5294L16.0559 9.50439C16.3489 9.21139 16.3489 8.73638 16.0559 8.44338C15.7639 8.15138 15.2891 8.14938 14.9951 8.44338L8.96899 14.4684C8.67599 14.7614 8.67599 15.2364 8.96899 15.5294C9.11499 15.6754 9.30702 15.7494 9.49902 15.7494C9.69102 15.7494 9.88403 15.6764 10.03 15.5294Z" fill="white"/>
</g>
</svg>
