<svg width="25" height="24" viewBox="0 0 25 24" fill="none" xmlns="http://www.w3.org/2000/svg">
<g id="menu-left-alt">
<path id="Vector" d="M16.5 7H3.5C2.948 7 2.5 6.552 2.5 6C2.5 5.448 2.948 5 3.5 5H16.5C17.052 5 17.5 5.448 17.5 6C17.5 6.552 17.052 7 16.5 7Z" fill="white"/>
<path id="Vector_2" d="M21.5 13H3.5C2.948 13 2.5 12.552 2.5 12C2.5 11.448 2.948 11 3.5 11H21.5C22.052 11 22.5 11.448 22.5 12C22.5 12.552 22.052 13 21.5 13Z" fill="white"/>
<path id="Vector_3" d="M12.5 19H3.5C2.948 19 2.5 18.552 2.5 18C2.5 17.448 2.948 17 3.5 17H12.5C13.052 17 13.5 17.448 13.5 18C13.5 18.552 13.052 19 12.5 19Z" fill="white"/>
</g>
</svg>
