<svg width="24" height="24" viewBox="0 0 24 24" fill="none" xmlns="http://www.w3.org/2000/svg">
<g id="settings">
<path id="settings_2" d="M12 8.25095C9.93205 8.25095 8.25005 9.93295 8.25005 12.0009C8.25005 14.0689 9.93205 15.7509 12 15.7509C14.068 15.7509 15.75 14.0689 15.75 12.0009C15.75 9.93295 14.068 8.25095 12 8.25095ZM12 14.2509C10.759 14.2509 9.75005 13.2419 9.75005 12.0009C9.75005 10.7599 10.759 9.75095 12 9.75095C13.241 9.75095 14.25 10.7599 14.25 12.0009C14.25 13.2419 13.241 14.2509 12 14.2509ZM21.2081 13.9539C20.5141 13.5519 20.082 12.8039 20.081 12.0009C20.08 11.1999 20.5091 10.453 21.2121 10.046C21.7271 9.74696 21.9031 9.08393 21.6051 8.56793L19.9331 5.68195C19.6351 5.16695 18.972 4.98996 18.456 5.28696C17.757 5.68996 16.8881 5.68996 16.1871 5.28296C15.4961 4.88196 15.0661 4.13695 15.0661 3.33795C15.0661 2.73895 14.578 2.25195 13.979 2.25195H10.024C9.42403 2.25195 8.93706 2.73895 8.93706 3.33795C8.93706 4.13695 8.50704 4.88194 7.81404 5.28494C7.11504 5.68994 6.24705 5.69093 5.54805 5.28793C5.03105 4.98993 4.36906 5.16795 4.07106 5.68295L2.39705 8.57196C2.09905 9.08696 2.27604 9.74893 2.79604 10.0509C3.48904 10.4519 3.92105 11.1989 3.92305 11.9999C3.92505 12.8019 3.49504 13.5509 2.79304 13.9579C2.54304 14.1029 2.36305 14.3359 2.28905 14.6159C2.21505 14.8949 2.25306 15.186 2.39806 15.437L4.06905 18.321C4.36705 18.837 5.03005 19.0159 5.54805 18.7169C6.24705 18.3139 7.11405 18.315 7.80305 18.714L7.80504 18.7149C7.80804 18.7169 7.81105 18.7189 7.81505 18.7209C8.50605 19.1219 8.93504 19.8669 8.93404 20.6669C8.93404 21.2659 9.42103 21.753 10.02 21.753H13.979C14.578 21.753 15.065 21.2659 15.065 20.6679C15.065 19.8679 15.495 19.1229 16.189 18.7199C16.887 18.3149 17.755 18.313 18.455 18.7169C18.971 19.0149 19.6331 18.8379 19.9321 18.3229L21.606 15.434C21.903 14.917 21.7261 14.2539 21.2081 13.9539ZM18.831 17.2279C17.741 16.7529 16.476 16.818 15.434 17.421C14.401 18.02 13.7191 19.0789 13.5871 20.2509H10.41C10.28 19.0789 9.59603 18.018 8.56303 17.42C7.52303 16.817 6.25605 16.7529 5.16905 17.2279L3.89305 15.0249C4.84805 14.3219 5.42504 13.194 5.42104 11.994C5.41804 10.802 4.84204 9.68194 3.89204 8.97894L5.16905 6.77493C6.25705 7.24893 7.52405 7.18493 8.56605 6.58093C9.59805 5.98293 10.28 4.92295 10.412 3.75195H13.5871C13.7181 4.92395 14.4011 5.98295 15.4361 6.58295C16.475 7.18595 17.742 7.24994 18.831 6.77594L20.108 8.97894C19.155 9.68094 18.579 10.8069 18.581 12.0049C18.582 13.1989 19.1581 14.3209 20.1091 15.0259L18.831 17.2279Z" fill="white"/>
</g>
</svg>
