<svg width="25" height="24" viewBox="0 0 25 24" fill="none" xmlns="http://www.w3.org/2000/svg">
<g id="sliders-horizontal-alt">
<path id="sliders-horizontal-alt_2" d="M6.625 3.25C4.557 3.25 2.875 4.932 2.875 7C2.875 9.068 4.557 10.75 6.625 10.75C8.693 10.75 10.375 9.068 10.375 7C10.375 4.932 8.693 3.25 6.625 3.25ZM6.625 9.25C5.384 9.25 4.375 8.241 4.375 7C4.375 5.759 5.384 4.75 6.625 4.75C7.866 4.75 8.875 5.759 8.875 7C8.875 8.241 7.866 9.25 6.625 9.25ZM18.625 13.25C16.557 13.25 14.875 14.932 14.875 17C14.875 19.068 16.557 20.75 18.625 20.75C20.693 20.75 22.375 19.068 22.375 17C22.375 14.932 20.693 13.25 18.625 13.25ZM18.625 19.25C17.384 19.25 16.375 18.241 16.375 17C16.375 15.759 17.384 14.75 18.625 14.75C19.866 14.75 20.875 15.759 20.875 17C20.875 18.241 19.866 19.25 18.625 19.25ZM15.625 7.75H21.625C22.039 7.75 22.375 7.414 22.375 7C22.375 6.586 22.039 6.25 21.625 6.25H15.625C15.211 6.25 14.875 6.586 14.875 7C14.875 7.414 15.211 7.75 15.625 7.75ZM9.625 16.25H3.625C3.211 16.25 2.875 16.586 2.875 17C2.875 17.414 3.211 17.75 3.625 17.75H9.625C10.039 17.75 10.375 17.414 10.375 17C10.375 16.586 10.039 16.25 9.625 16.25Z" fill="white"/>
</g>
</svg>
