<svg width="25" height="24" viewBox="0 0 25 24" fill="none" xmlns="http://www.w3.org/2000/svg">
<g id="users-alt">
<path id="users-alt_2" d="M9.13403 10.75C11.478 10.75 13.384 8.843 13.384 6.5C13.384 4.157 11.478 2.25 9.13403 2.25C6.79003 2.25 4.88403 4.157 4.88403 6.5C4.88403 8.843 6.79003 10.75 9.13403 10.75ZM9.13403 3.75C10.651 3.75 11.884 4.983 11.884 6.5C11.884 8.017 10.651 9.25 9.13403 9.25C7.61703 9.25 6.38403 8.017 6.38403 6.5C6.38403 4.983 7.61703 3.75 9.13403 3.75ZM16.875 18.019V21C16.875 21.414 16.539 21.75 16.125 21.75C15.711 21.75 15.375 21.414 15.375 21V18.019C15.375 17.018 15.068 13.75 11.125 13.75H7.125C3.182 13.75 2.875 17.017 2.875 18.019V21C2.875 21.414 2.539 21.75 2.125 21.75C1.711 21.75 1.375 21.414 1.375 21V18.019C1.375 15.358 2.881 12.25 7.125 12.25H11.125C15.369 12.25 16.875 15.357 16.875 18.019ZM14.28 10.2159C13.984 9.92594 13.9779 9.45103 14.2679 9.15503C14.5589 8.85903 15.034 8.85504 15.329 9.14404C15.688 9.49604 16.17 9.68994 16.684 9.68994C17.789 9.68994 18.655 8.82497 18.655 7.71997C18.655 6.63397 17.771 5.75 16.684 5.75C16.376 5.75 16.0981 5.81301 15.8571 5.93701C15.4901 6.12801 15.037 5.98104 14.847 5.61304C14.657 5.24504 14.803 4.79303 15.171 4.60303C15.627 4.36903 16.136 4.25 16.684 4.25C18.598 4.25 20.155 5.80697 20.155 7.71997C20.155 9.63297 18.598 11.1899 16.684 11.1899C15.775 11.1899 14.922 10.8439 14.28 10.2159ZM22.875 16.6801V19C22.875 19.414 22.539 19.75 22.125 19.75C21.711 19.75 21.375 19.414 21.375 19V16.6801C21.375 15.9411 21.148 13.53 18.235 13.53H16.724C16.31 13.53 15.974 13.194 15.974 12.78C15.974 12.366 16.31 12.03 16.724 12.03H18.235C21.66 12.03 22.875 14.5351 22.875 16.6801Z" fill="white"/>
</g>
</svg>
