<svg width="15" height="15" viewBox="0 0 15 15" fill="none" xmlns="http://www.w3.org/2000/svg">
<g id="user-alt">
<path id="user-alt_2" d="M7.50565 6.71875C6.04065 6.71875 4.8494 5.52688 4.8494 4.0625C4.8494 2.59812 6.04065 1.40625 7.50565 1.40625C8.97065 1.40625 10.1619 2.59812 10.1619 4.0625C10.1619 5.52688 8.97065 6.71875 7.50565 6.71875ZM7.50565 2.34375C6.55752 2.34375 5.7869 3.11437 5.7869 4.0625C5.7869 5.01062 6.55752 5.78125 7.50565 5.78125C8.45377 5.78125 9.2244 5.01062 9.2244 4.0625C9.2244 3.11437 8.45315 2.34375 7.50565 2.34375ZM12.3438 13.125V11.2619C12.3438 9.59878 11.4025 7.65625 8.75 7.65625H6.25C3.5975 7.65625 2.65625 9.59815 2.65625 11.2619V13.125C2.65625 13.3837 2.86625 13.5938 3.125 13.5938C3.38375 13.5938 3.59375 13.3837 3.59375 13.125V11.2619C3.59375 10.6363 3.78562 8.59375 6.25 8.59375H8.75C11.2144 8.59375 11.4062 10.6357 11.4062 11.2619V13.125C11.4062 13.3837 11.6163 13.5938 11.875 13.5938C12.1337 13.5938 12.3438 13.3837 12.3438 13.125Z" fill="white"/>
</g>
</svg>
