<svg width="36" height="64" viewBox="0 0 36 64" fill="none" xmlns="http://www.w3.org/2000/svg">
<rect x="0.5" width="35" height="35" rx="5" fill="#FED602"/>
<path fill-rule="evenodd" clip-rule="evenodd" d="M18.9061 9.18007C18.6272 9.04852 18.3175 8.97656 17.9963 8.97656C17.1606 8.97656 16.4029 9.46367 16.0622 10.2201L8.95837 25.9905H11.6035L13.299 22.1083L14.2825 19.8803L17.5783 12.316L18.9061 9.18007ZM18.9726 13.8459L21.5734 19.8465L22.523 22.0746L24.2185 25.9567H27.0332L20.2284 10.8802L18.9726 13.8459ZM20.0121 22.1225L17.8992 17.4746L15.7146 22.1225L20.0121 22.1225Z" fill="#292421"/>
<path d="M12.6221 57.072C12.6221 57.68 12.4621 58.2027 12.1421 58.64C11.8327 59.0773 11.4114 59.4133 10.8781 59.648C10.3447 59.8827 9.75806 60 9.11806 60H3.69406V48.64H9.55006C10.0834 48.64 10.5421 48.784 10.9261 49.072C11.3207 49.3493 11.6194 49.712 11.8221 50.16C12.0354 50.5973 12.1421 51.056 12.1421 51.536C12.1421 52.0907 11.9981 52.6133 11.7101 53.104C11.4327 53.584 11.0327 53.9413 10.5101 54.176C11.1607 54.368 11.6727 54.72 12.0461 55.232C12.4301 55.7333 12.6221 56.3467 12.6221 57.072ZM10.7821 56.736C10.7821 56.416 10.7127 56.128 10.5741 55.872C10.4461 55.6053 10.2647 55.392 10.0301 55.232C9.80606 55.0613 9.5394 54.976 9.23006 54.976H5.48606V58.448H9.11806C9.43806 58.448 9.72073 58.3733 9.96606 58.224C10.2221 58.064 10.4194 57.856 10.5581 57.6C10.7074 57.3333 10.7821 57.0453 10.7821 56.736ZM5.48606 50.192V53.536H8.78206C9.08073 53.536 9.3474 53.4667 9.58206 53.328C9.81673 53.1787 10.0034 52.9813 10.1421 52.736C10.2807 52.48 10.3501 52.192 10.3501 51.872C10.3501 51.5413 10.2861 51.2533 10.1581 51.008C10.0301 50.752 9.85406 50.5547 9.63006 50.416C9.41673 50.2667 9.16606 50.192 8.87806 50.192H5.48606ZM13.9149 60C13.9149 59.3493 13.9629 58.7787 14.0589 58.288C14.1549 57.7973 14.3043 57.3547 14.5069 56.96C14.7096 56.5653 14.9656 56.2187 15.2749 55.92C15.5843 55.6213 15.9416 55.3493 16.3469 55.104C16.7416 54.8693 17.1469 54.6507 17.5629 54.448C17.9896 54.2453 18.3843 54.032 18.7469 53.808C19.1096 53.584 19.3976 53.3227 19.6109 53.024C19.8349 52.7147 19.9469 52.3413 19.9469 51.904C19.9469 51.552 19.8723 51.2427 19.7229 50.976C19.5843 50.7093 19.3709 50.5013 19.0829 50.352C18.8056 50.192 18.4483 50.112 18.0109 50.112C17.5629 50.112 17.1469 50.192 16.7629 50.352C16.3896 50.5013 16.0589 50.688 15.7709 50.912C15.4936 51.136 15.2696 51.3547 15.0989 51.568L13.9789 50.4C14.0856 50.272 14.2563 50.1013 14.4909 49.888C14.7363 49.6747 15.0349 49.4613 15.3869 49.248C15.7496 49.0347 16.1656 48.8587 16.6349 48.72C17.1043 48.5707 17.6323 48.496 18.2189 48.496C19.0296 48.496 19.7069 48.6453 20.2509 48.944C20.8056 49.232 21.2216 49.632 21.4989 50.144C21.7869 50.6453 21.9309 51.2107 21.9309 51.84C21.9309 52.352 21.8403 52.8 21.6589 53.184C21.4776 53.5573 21.2376 53.8827 20.9389 54.16C20.6509 54.4267 20.3256 54.6667 19.9629 54.88C19.6109 55.0933 19.2589 55.296 18.9069 55.488C18.2989 55.7973 17.8083 56.0747 17.4349 56.32C17.0723 56.5653 16.7843 56.8 16.5709 57.024C16.3683 57.248 16.2243 57.472 16.1389 57.696C16.0536 57.92 15.9949 58.16 15.9629 58.416H21.9469V60H13.9149ZM32.9971 57.072C32.9971 57.68 32.8371 58.2027 32.5171 58.64C32.2077 59.0773 31.7864 59.4133 31.2531 59.648C30.7197 59.8827 30.1331 60 29.4931 60H24.0691V48.64H29.9251C30.4584 48.64 30.9171 48.784 31.3011 49.072C31.6957 49.3493 31.9944 49.712 32.1971 50.16C32.4104 50.5973 32.5171 51.056 32.5171 51.536C32.5171 52.0907 32.3731 52.6133 32.0851 53.104C31.8077 53.584 31.4077 53.9413 30.8851 54.176C31.5357 54.368 32.0477 54.72 32.4211 55.232C32.8051 55.7333 32.9971 56.3467 32.9971 57.072ZM31.1571 56.736C31.1571 56.416 31.0877 56.128 30.9491 55.872C30.8211 55.6053 30.6397 55.392 30.4051 55.232C30.1811 55.0613 29.9144 54.976 29.6051 54.976H25.8611V58.448H29.4931C29.8131 58.448 30.0957 58.3733 30.3411 58.224C30.5971 58.064 30.7944 57.856 30.9331 57.6C31.0824 57.3333 31.1571 57.0453 31.1571 56.736ZM25.8611 50.192V53.536H29.1571C29.4557 53.536 29.7224 53.4667 29.9571 53.328C30.1917 53.1787 30.3784 52.9813 30.5171 52.736C30.6557 52.48 30.7251 52.192 30.7251 51.872C30.7251 51.5413 30.6611 51.2533 30.5331 51.008C30.4051 50.752 30.2291 50.5547 30.0051 50.416C29.7917 50.2667 29.5411 50.192 29.2531 50.192H25.8611Z" fill="#292421"/>
</svg>
