<svg width="152" height="37" viewBox="0 0 152 37" fill="none" xmlns="http://www.w3.org/2000/svg">
  <rect width="151.102" height="37" rx="18.5" fill="#FED602" />
  <path
    d="M58.9028 23.9708V25.9992H70.22V23.9708H58.9028ZM58.9028 10.9648V12.9933H70.22V10.9648H58.9028ZM58.9028 17.4678V19.4963H69.2695V17.4678H58.9028Z"
    fill="#292421" />
  <path
    d="M57.0111 10.9648L52.6108 24.7728C52.378 25.5033 51.6994 25.9992 50.9328 25.9992C50.1956 25.9992 49.5365 25.5402 49.2809 24.8487L45.581 14.8399L41.9572 24.8515C41.7079 25.5404 41.0538 25.9992 40.3212 25.9992C39.5638 25.9992 38.8934 25.5093 38.6634 24.7876L34.2583 10.9648H36.944L40.489 22.463L43.9149 12.1628C44.1529 11.4475 44.822 10.9648 45.5758 10.9648C46.3243 10.9648 46.9899 11.4407 47.232 12.1489L50.7589 22.463L54.2825 10.9648H57.0111Z"
    fill="#292421" />
  <path
    d="M83.5334 26.0001L78.8087 19.8874L74.1138 26.0001H71.5122L77.463 18.4038L71.7813 11.0449H74.4427L78.8685 16.7718L83.2344 11.0449H85.8659L80.1842 18.2851L86.135 26.0001H83.5334Z"
    fill="#292421" />
  <path fill-rule="evenodd" clip-rule="evenodd"
    d="M28.7904 11.1447C28.5439 11.0284 28.2703 10.9648 27.9864 10.9648C27.2479 10.9648 26.5784 11.3953 26.2773 12.0637L20 25.9992H22.3373L23.8356 22.5688L24.7047 20.6L27.6155 13.9193L28.7904 11.1447ZM28.8491 15.2676L31.1473 20.5702L31.9864 22.5389L33.4847 25.9694H35.9719L29.9588 12.6469L28.8491 15.2676ZM30.1479 23.4277L27.9006 18.7959L25.6533 23.4277L30.1479 23.4277Z"
    fill="#292421" />
  <rect x="91.1016" y="10" width="40" height="17" rx="8.5" fill="#292421" />
  <path
    d="M106.345 20.7093C106.345 21.1683 106.221 21.5688 105.973 21.911C105.725 22.2531 105.388 22.5202 104.963 22.7121C104.546 22.904 104.086 23 103.581 23H99.1016V14.1127H103.793C104.236 14.1127 104.617 14.2253 104.936 14.4506C105.264 14.6676 105.512 14.9513 105.681 15.3018C105.858 15.644 105.946 16.0028 105.946 16.3783C105.946 16.8122 105.827 17.2211 105.588 17.605C105.357 17.9805 105.025 18.2601 104.591 18.4437C105.131 18.5939 105.557 18.8734 105.867 19.2823C106.186 19.6829 106.345 20.1586 106.345 20.7093ZM105.136 20.509C105.136 20.2337 105.069 19.9791 104.936 19.7455C104.812 19.5118 104.639 19.3241 104.418 19.1822C104.205 19.0403 103.957 18.9694 103.674 18.9694H100.298V22.0236H103.581C103.873 22.0236 104.134 21.9527 104.365 21.8108C104.604 21.669 104.79 21.4854 104.923 21.2601C105.065 21.0264 105.136 20.7761 105.136 20.509ZM100.298 15.089V18.0556H103.301C103.585 18.0556 103.833 17.9889 104.046 17.8554C104.267 17.7218 104.44 17.5424 104.564 17.3171C104.697 17.0918 104.764 16.8456 104.764 16.5786C104.764 16.2949 104.701 16.0445 104.577 15.8275C104.462 15.6022 104.298 15.4228 104.086 15.2893C103.882 15.1558 103.647 15.089 103.381 15.089H100.298Z"
    fill="white" />
  <path
    d="M107.5 23C107.5 22.4993 107.544 22.057 107.633 21.6732C107.73 21.2809 107.868 20.9305 108.045 20.6217C108.231 20.3129 108.453 20.0417 108.71 19.8081C108.967 19.5744 109.259 19.3658 109.587 19.1822C109.932 18.9903 110.287 18.815 110.65 18.6565C111.013 18.4979 111.35 18.331 111.66 18.1558C111.97 17.9805 112.218 17.7719 112.404 17.5299C112.599 17.2796 112.697 16.9708 112.697 16.6036C112.697 16.3115 112.63 16.0487 112.497 15.815C112.365 15.573 112.165 15.3811 111.899 15.2392C111.634 15.0974 111.292 15.0264 110.876 15.0264C110.46 15.0264 110.083 15.0932 109.746 15.2267C109.418 15.3602 109.135 15.5188 108.896 15.7024C108.656 15.886 108.466 16.0612 108.324 16.2281L107.567 15.5146C107.637 15.4312 107.761 15.306 107.939 15.1391C108.125 14.9722 108.36 14.8011 108.643 14.6259C108.936 14.4506 109.277 14.3046 109.667 14.1878C110.056 14.0626 110.499 14 110.996 14C111.66 14 112.214 14.1168 112.657 14.3505C113.1 14.5841 113.432 14.8971 113.654 15.2893C113.884 15.6815 113.999 16.1154 113.999 16.5911C113.999 17.0167 113.915 17.3839 113.747 17.6926C113.578 17.993 113.361 18.2476 113.096 18.4562C112.83 18.6648 112.537 18.8484 112.218 19.007C111.908 19.1655 111.607 19.3157 111.315 19.4576C110.756 19.7079 110.313 19.9374 109.985 20.146C109.658 20.3547 109.405 20.5591 109.228 20.7594C109.06 20.9513 108.944 21.1474 108.882 21.3477C108.829 21.548 108.798 21.765 108.789 21.9986H114.013V23H107.5Z"
    fill="white" />
  <path
    d="M123.102 20.7093C123.102 21.1683 122.978 21.5688 122.729 21.911C122.481 22.2531 122.145 22.5202 121.719 22.7121C121.303 22.904 120.842 23 120.337 23H115.858V14.1127H120.55C120.993 14.1127 121.374 14.2253 121.693 14.4506C122.021 14.6676 122.269 14.9513 122.437 15.3018C122.614 15.644 122.703 16.0028 122.703 16.3783C122.703 16.8122 122.583 17.2211 122.344 17.605C122.114 17.9805 121.781 18.2601 121.347 18.4437C121.888 18.5939 122.313 18.8734 122.623 19.2823C122.942 19.6829 123.102 20.1586 123.102 20.7093ZM121.892 20.509C121.892 20.2337 121.826 19.9791 121.693 19.7455C121.569 19.5118 121.396 19.3241 121.174 19.1822C120.962 19.0403 120.714 18.9694 120.43 18.9694H117.054V22.0236H120.337C120.629 22.0236 120.891 21.9527 121.121 21.8108C121.36 21.669 121.547 21.4854 121.679 21.2601C121.821 21.0264 121.892 20.7761 121.892 20.509ZM117.054 15.089V18.0556H120.058C120.341 18.0556 120.59 17.9889 120.802 17.8554C121.024 17.7218 121.197 17.5424 121.321 17.3171C121.453 17.0918 121.52 16.8456 121.52 16.5786C121.52 16.2949 121.458 16.0445 121.334 15.8275C121.219 15.6022 121.055 15.4228 120.842 15.2893C120.638 15.1558 120.404 15.089 120.138 15.089H117.054Z"
    fill="white" />
</svg>