<svg width="101" height="37" viewBox="0 0 101 37" fill="none" xmlns="http://www.w3.org/2000/svg">
<rect width="101" height="37" rx="18.5" fill="#FED602"/>
<path fill-rule="evenodd" clip-rule="evenodd" d="M28.7904 11.1447C28.5439 11.0284 28.2703 10.9648 27.9864 10.9648C27.2479 10.9648 26.5784 11.3953 26.2773 12.0637L20 25.9992H22.3373L23.8356 22.5688L24.7047 20.6L27.6155 13.9193L28.7904 11.1447ZM28.8491 15.2676L31.1473 20.5702L31.9864 22.5389L33.4847 25.9694H35.9719L29.9588 12.6469L28.8491 15.2676ZM30.1479 23.4277L27.9006 18.7959L25.6533 23.4277L30.1479 23.4277Z" fill="#292421"/>
<rect x="41" y="10" width="40" height="17" rx="8.5" fill="#292421"/>
<path d="M56.2436 20.7093C56.2436 21.1683 56.1195 21.5688 55.8714 21.911C55.6233 22.2531 55.2866 22.5202 54.8613 22.7121C54.4449 22.904 53.9841 23 53.479 23H49V14.1127H53.6917C54.1347 14.1127 54.5157 14.2253 54.8347 14.4506C55.1626 14.6676 55.4107 14.9513 55.579 15.3018C55.7562 15.644 55.8448 16.0028 55.8448 16.3783C55.8448 16.8122 55.7252 17.2211 55.486 17.605C55.2556 17.9805 54.9233 18.2601 54.4892 18.4437C55.0297 18.5939 55.455 18.8734 55.7651 19.2823C56.0841 19.6829 56.2436 20.1586 56.2436 20.7093ZM55.0341 20.509C55.0341 20.2337 54.9676 19.9791 54.8347 19.7455C54.7107 19.5118 54.5379 19.3241 54.3164 19.1822C54.1037 19.0403 53.8556 18.9694 53.5721 18.9694H50.1962V22.0236H53.479C53.7714 22.0236 54.0328 21.9527 54.2632 21.8108C54.5024 21.669 54.6885 21.4854 54.8214 21.2601C54.9632 21.0264 55.0341 20.7761 55.0341 20.509ZM50.1962 15.089V18.0556H53.1999C53.4835 18.0556 53.7316 17.9889 53.9442 17.8554C54.1657 17.7218 54.3385 17.5424 54.4626 17.3171C54.5955 17.0918 54.6619 16.8456 54.6619 16.5786C54.6619 16.2949 54.5999 16.0445 54.4759 15.8275C54.3607 15.6022 54.1968 15.4228 53.9841 15.2893C53.7803 15.1558 53.5455 15.089 53.2797 15.089H50.1962Z" fill="white"/>
<path d="M57.3985 23C57.3985 22.4993 57.4428 22.057 57.5314 21.6732C57.6289 21.2809 57.7662 20.9305 57.9434 20.6217C58.1295 20.3129 58.351 20.0417 58.608 19.8081C58.865 19.5744 59.1574 19.3658 59.4852 19.1822C59.8308 18.9903 60.1852 18.815 60.5485 18.6565C60.9118 18.4979 61.2485 18.331 61.5586 18.1558C61.8687 17.9805 62.1168 17.7719 62.3029 17.5299C62.4978 17.2796 62.5953 16.9708 62.5953 16.6036C62.5953 16.3115 62.5288 16.0487 62.3959 15.815C62.263 15.573 62.0636 15.3811 61.7978 15.2392C61.532 15.0974 61.1909 15.0264 60.7744 15.0264C60.358 15.0264 59.9814 15.0932 59.6447 15.2267C59.3168 15.3602 59.0333 15.5188 58.7941 15.7024C58.5548 15.886 58.3643 16.0612 58.2226 16.2281L57.465 15.5146C57.5359 15.4312 57.6599 15.306 57.8371 15.1391C58.0232 14.9722 58.258 14.8011 58.5415 14.6259C58.8339 14.4506 59.1751 14.3046 59.5649 14.1878C59.9548 14.0626 60.3978 14 60.894 14C61.5586 14 62.1124 14.1168 62.5554 14.3505C62.9984 14.5841 63.3307 14.8971 63.5522 15.2893C63.7826 15.6815 63.8978 16.1154 63.8978 16.5911C63.8978 17.0167 63.8136 17.3839 63.6453 17.6926C63.4769 17.993 63.2598 18.2476 62.994 18.4562C62.7282 18.6648 62.4358 18.8484 62.1168 19.007C61.8067 19.1655 61.5054 19.3157 61.213 19.4576C60.6548 19.7079 60.2118 19.9374 59.8839 20.146C59.5561 20.3547 59.3036 20.5591 59.1263 20.7594C58.958 20.9513 58.8428 21.1474 58.7808 21.3477C58.7276 21.548 58.6966 21.765 58.6877 21.9986H63.9111V23H57.3985Z" fill="white"/>
<path d="M73 20.7093C73 21.1683 72.876 21.5688 72.6279 21.911C72.3798 22.2531 72.0431 22.5202 71.6177 22.7121C71.2013 22.904 70.7405 23 70.2355 23H65.7564V14.1127H70.4481C70.8912 14.1127 71.2722 14.2253 71.5912 14.4506C71.919 14.6676 72.1671 14.9513 72.3355 15.3018C72.5127 15.644 72.6013 16.0028 72.6013 16.3783C72.6013 16.8122 72.4817 17.2211 72.2424 17.605C72.012 17.9805 71.6798 18.2601 71.2456 18.4437C71.7861 18.5939 72.2114 18.8734 72.5215 19.2823C72.8405 19.6829 73 20.1586 73 20.7093ZM71.7905 20.509C71.7905 20.2337 71.7241 19.9791 71.5912 19.7455C71.4671 19.5118 71.2943 19.3241 71.0728 19.1822C70.8602 19.0403 70.6121 18.9694 70.3285 18.9694H66.9526V22.0236H70.2355C70.5279 22.0236 70.7893 21.9527 71.0197 21.8108C71.2589 21.669 71.445 21.4854 71.5779 21.2601C71.7196 21.0264 71.7905 20.7761 71.7905 20.509ZM66.9526 15.089V18.0556H69.9564C70.2399 18.0556 70.488 17.9889 70.7007 17.8554C70.9222 17.7218 71.095 17.5424 71.219 17.3171C71.3519 17.0918 71.4184 16.8456 71.4184 16.5786C71.4184 16.2949 71.3564 16.0445 71.2323 15.8275C71.1171 15.6022 70.9532 15.4228 70.7405 15.2893C70.5367 15.1558 70.3019 15.089 70.0361 15.089H66.9526Z" fill="white"/>
</svg>
