<svg width="24" height="24" viewBox="0 0 24 24" fill="none" xmlns="http://www.w3.org/2000/svg">
<path d="M11.9998 8.24997C9.9318 8.24997 8.2498 9.93197 8.2498 12C8.2498 14.068 9.9318 15.75 11.9998 15.75C14.0678 15.75 15.7498 14.068 15.7498 12C15.7498 9.93197 14.0678 8.24997 11.9998 8.24997ZM11.9998 14.25C10.7588 14.25 9.7498 13.241 9.7498 12C9.7498 10.759 10.7588 9.74997 11.9998 9.74997C13.2408 9.74997 14.2498 10.759 14.2498 12C14.2498 13.241 13.2408 14.25 11.9998 14.25ZM21.2078 13.953C20.5138 13.551 20.0818 12.803 20.0808 12C20.0798 11.199 20.5088 10.452 21.2118 10.045C21.7268 9.74598 21.9028 9.08296 21.6048 8.56696L19.9328 5.68097C19.6348 5.16597 18.9718 4.98898 18.4558 5.28598C17.7568 5.68898 16.8878 5.68898 16.1868 5.28198C15.4958 4.88098 15.0658 4.13598 15.0658 3.33698C15.0658 2.73798 14.5778 2.25098 13.9788 2.25098H10.0238C9.42379 2.25098 8.93681 2.73798 8.93681 3.33698C8.93681 4.13598 8.5068 4.88097 7.8138 5.28397C7.1148 5.68897 6.24681 5.68996 5.54781 5.28696C5.03081 4.98896 4.36882 5.16698 4.07082 5.68198L2.3968 8.57098C2.0988 9.08598 2.27579 9.74796 2.79579 10.05C3.48879 10.451 3.92081 11.198 3.92281 11.999C3.92481 12.801 3.4948 13.55 2.7928 13.957C2.5428 14.102 2.3628 14.335 2.2888 14.615C2.2148 14.894 2.25281 15.185 2.39781 15.436L4.0688 18.32C4.3668 18.836 5.02981 19.015 5.54781 18.716C6.24681 18.313 7.11381 18.314 7.80281 18.713L7.80479 18.714C7.80779 18.716 7.8108 18.718 7.8148 18.72C8.5058 19.121 8.93479 19.866 8.93379 20.666C8.93379 21.265 9.42079 21.752 10.0198 21.752H13.9788C14.5778 21.752 15.0648 21.265 15.0648 20.667C15.0648 19.867 15.4948 19.122 16.1888 18.719C16.8868 18.314 17.7548 18.312 18.4548 18.716C18.9708 19.014 19.6328 18.837 19.9318 18.322L21.6058 15.433C21.9028 14.916 21.7258 14.253 21.2078 13.953ZM18.8308 17.227C17.7408 16.752 16.4758 16.817 15.4338 17.42C14.4008 18.019 13.7188 19.078 13.5868 20.25H10.4098C10.2798 19.078 9.59579 18.017 8.56279 17.419C7.52279 16.816 6.25581 16.752 5.16881 17.227L3.89281 15.024C4.84781 14.321 5.42479 13.193 5.42079 11.993C5.41779 10.801 4.8418 9.68097 3.8918 8.97797L5.16881 6.77396C6.25681 7.24796 7.52381 7.18396 8.56581 6.57996C9.59781 5.98196 10.2798 4.92198 10.4118 3.75098H13.5868C13.7178 4.92298 14.4008 5.98197 15.4358 6.58197C16.4748 7.18497 17.7418 7.24896 18.8308 6.77496L20.1078 8.97797C19.1548 9.67997 18.5788 10.806 18.5808 12.004C18.5818 13.198 19.1578 14.32 20.1088 15.025L18.8308 17.227Z" fill="#292421"/>
</svg>
