<svg width="34" height="34" viewBox="0 0 34 34" fill="none" xmlns="http://www.w3.org/2000/svg">
<path d="M17.009 15.75C14.665 15.75 12.759 13.843 12.759 11.5C12.759 9.157 14.665 7.25 17.009 7.25C19.353 7.25 21.259 9.157 21.259 11.5C21.259 13.843 19.353 15.75 17.009 15.75ZM17.009 8.75C15.492 8.75 14.259 9.983 14.259 11.5C14.259 13.017 15.492 14.25 17.009 14.25C18.526 14.25 19.759 13.017 19.759 11.5C19.759 9.983 18.525 8.75 17.009 8.75ZM24.75 26V23.019C24.75 20.358 23.244 17.25 19 17.25H15C10.756 17.25 9.25 20.357 9.25 23.019V26C9.25 26.414 9.586 26.75 10 26.75C10.414 26.75 10.75 26.414 10.75 26V23.019C10.75 22.018 11.057 18.75 15 18.75H19C22.943 18.75 23.25 22.017 23.25 23.019V26C23.25 26.414 23.586 26.75 24 26.75C24.414 26.75 24.75 26.414 24.75 26Z" fill="#292421"/>
<rect x="0.5" y="0.5" width="33" height="33" rx="16.5" stroke="#292421"/>
</svg>
