<svg width="34" height="35" viewBox="0 0 34 35" fill="none" xmlns="http://www.w3.org/2000/svg">
<rect x="0.5" y="1" width="33" height="33" rx="16.5" fill="#292421"/>
<path d="M17.009 16.25C14.665 16.25 12.759 14.343 12.759 12C12.759 9.657 14.665 7.75 17.009 7.75C19.353 7.75 21.259 9.657 21.259 12C21.259 14.343 19.353 16.25 17.009 16.25ZM17.009 9.25C15.492 9.25 14.259 10.483 14.259 12C14.259 13.517 15.492 14.75 17.009 14.75C18.526 14.75 19.759 13.517 19.759 12C19.759 10.483 18.525 9.25 17.009 9.25ZM24.75 26.5V23.519C24.75 20.858 23.244 17.75 19 17.75H15C10.756 17.75 9.25 20.857 9.25 23.519V26.5C9.25 26.914 9.586 27.25 10 27.25C10.414 27.25 10.75 26.914 10.75 26.5V23.519C10.75 22.518 11.057 19.25 15 19.25H19C22.943 19.25 23.25 22.517 23.25 23.519V26.5C23.25 26.914 23.586 27.25 24 27.25C24.414 27.25 24.75 26.914 24.75 26.5Z" fill="white"/>
<rect x="0.5" y="1" width="33" height="33" rx="16.5" stroke="#292421"/>
</svg>
