<svg width="41" height="24" viewBox="0 0 41 24" fill="none" xmlns="http://www.w3.org/2000/svg">
<path d="M12.5764 10.75C10.2324 10.75 8.32642 8.843 8.32642 6.5C8.32642 4.157 10.2324 2.25 12.5764 2.25C14.9204 2.25 16.8264 4.157 16.8264 6.5C16.8264 8.843 14.9204 10.75 12.5764 10.75ZM12.5764 3.75C11.0594 3.75 9.82642 4.983 9.82642 6.5C9.82642 8.017 11.0594 9.25 12.5764 9.25C14.0934 9.25 15.3264 8.017 15.3264 6.5C15.3264 4.983 14.0924 3.75 12.5764 3.75ZM20.3174 21V18.019C20.3174 15.358 18.8114 12.25 14.5674 12.25H10.5674C6.32338 12.25 4.81738 15.357 4.81738 18.019V21C4.81738 21.414 5.15338 21.75 5.56738 21.75C5.98138 21.75 6.31738 21.414 6.31738 21V18.019C6.31738 17.018 6.62438 13.75 10.5674 13.75H14.5674C18.5104 13.75 18.8174 17.017 18.8174 18.019V21C18.8174 21.414 19.1534 21.75 19.5674 21.75C19.9814 21.75 20.3174 21.414 20.3174 21Z" fill="#292421"/>
<path d="M32.5669 15.1667C32.4389 15.1667 32.3109 15.118 32.2136 15.02L27.5469 10.3534C27.3516 10.158 27.3516 9.84135 27.5469 9.64601C27.7422 9.45068 28.0589 9.45068 28.2542 9.64601L32.5676 13.9593L36.8809 9.64601C37.0762 9.45068 37.3929 9.45068 37.5882 9.64601C37.7836 9.84135 37.7836 10.158 37.5882 10.3534L32.9216 15.02C32.8229 15.118 32.6949 15.1667 32.5669 15.1667Z" fill="#292421"/>
</svg>
