<svg width="373" height="189" viewBox="0 0 373 189" fill="none" xmlns="http://www.w3.org/2000/svg">
<path d="M361.221 60.2534L373 89.0926V179C373 184.523 368.523 189 363 189H0V183.335L2.61752 155.011L13.0877 151.921V143.681L18.3228 138.016L27.4842 120.507V149.861L34.028 161.706L37.3 151.921L44.4982 140.591L49.7333 146.771C52.1328 137.33 57.0624 117.623 57.586 114.327C58.1095 111.031 62.6029 126.687 64.7842 134.926L70.0193 161.706L78.5263 155.011L83.107 124.627L94.2316 132.352L97.5035 155.011L104.047 161.706C105.138 157.586 107.581 148.831 108.628 146.771C109.675 144.711 112.991 151.406 114.518 155.011L118.444 175.61L124.333 179.215L128.26 184.88L139.384 172.005L142.002 143.681L149.854 151.921L157.053 134.926V114.327C158.58 111.065 161.764 104.13 162.288 102.482C162.811 100.834 166.868 107.632 168.832 111.237H173.412L177.993 81.8828H189.118L193.044 89.0926L199.588 79.8229L202.86 69.5232L208.095 79.8229L212.675 57.6785L216.602 42.2289L224.454 49.4387L228.381 27.2943L234.925 42.2289L248.667 35.5341L257.828 0L264.372 10.2997C265.681 22.4877 268.429 47.3787 268.953 49.4387C269.607 52.0136 272.225 38.624 272.879 35.5341C273.402 33.0621 276.587 50.9837 278.114 60.2534L284.004 72.6131L286.621 42.2289L293.165 49.4387L298.4 57.6785L302.981 95.2725L317.377 69.5232L324.575 85.4877L328.502 44.8038L335.7 10.2997L342.898 0L348.133 25.2343L352.714 18.5395L357.949 27.2943L361.221 60.2534Z" fill="url(#paint0_linear_437_2255)" fill-opacity="0.6"/>
<defs>
<linearGradient id="paint0_linear_437_2255" x1="1.40863e-06" y1="94.4999" x2="373" y2="94.4999" gradientUnits="userSpaceOnUse">
<stop stop-color="#FED602" stop-opacity="0"/>
<stop offset="0.0001" stop-color="#D9D9D9" stop-opacity="0"/>
<stop offset="0.0002" stop-color="#D9D9D9" stop-opacity="0"/>
<stop offset="1" stop-color="#FED602"/>
</linearGradient>
</defs>
</svg>
